<svg id="SvgjsSvg1001" width="288" height="288" xmlns="http://www.w3.org/2000/svg" version="1.1" xmlns:xlink="http://www.w3.org/1999/xlink" xmlns:svgjs="http://svgjs.com/svgjs"><defs id="SvgjsDefs1002"></defs><g id="SvgjsG1008" transform="matrix(1,0,0,1,0,0)"><svg xmlns="http://www.w3.org/2000/svg" enable-background="new 0 0 268.58 251.35" viewBox="0 0 268.58 251.35" width="288" height="288"><path fill="#e9e8e8" d="M126.41,122.56c-7.35,11.54-5.88,23.28-0.86,35.14c1.84,4.34,3.49,8.76,5.14,12.93		c-3.97,3.39-7.47,5.63-12.12,3.8c-1.08,0.1-2.23,0.51-3.22,0.26c-5.62-1.4-10.36-0.01-14.79,3.7c-5.05,4.22-10.43,8.06-15.67,12.06
		c-0.48,0.08-0.96,0.17-1.85,0.32c0.81,0.58,1.29,0.92,1.76,1.26c1.38,3.54,2.75,7.07,4.13,10.61c0,0.25,0,0.5,0,0.87
		c0.35-0.12,0.59-0.2,0.83-0.29c7.82-1.85,14.93,0.52,22.12,3.3c4.38,1.69,9.07,2.89,13.72,3.39c2.24,0.24,4.8-1.48,7.06-2.62
		c3.3-1.67,6.47-3.61,10.08-4.85c3.88-8.45,9.39-15.1,20.64-15.48c-1.85-2.07-2.95-3.3-4.83-5.4c2.72-0.92,4.81-1.62,6.89-2.32
		c1.02,0,2.05,0,3.07,0c0.07-0.17,0.14-0.34,0.21-0.51c-1.06-0.55-2.11-1.1-3.17-1.65c-6.7-3.63-13.87-3.92-21.22-3.02
		c-3.05,0.37-6.04,0.61-8.61-1.8c-0.84-0.79-2.29-0.93-3.82-1.51c2.68-1.34,4.37,0.63,6.38,1.12c2.09,0.51,4.4,0.25,6.6,0.17
		c2.27-0.09,4.68,0.06,6.75-0.69c2.05-0.74,3.66-2.62,5.62-3.72c1.93-1.08,4.05-1.82,6.55-2.39c-1.43,1.18-2.85,2.36-4.28,3.54
		c-1.6,0.82-3.19,1.63-5.48,2.81c7.72,1.59,14.54,2.58,19.14,9.92c-3.02,0-5.05,0-7.07,0c-1.09,0.18-2.18,0.36-3.27,0.54
		c-0.24,0.08-0.48,0.15-0.83,0.26c0.32,0.22,0.53,0.37,0.75,0.52c0.92,1.36,1.83,2.73,3.05,4.54c-1.69,0.84-2.76,1.8-3.89,1.86
		c-7.98,0.4-12.46,5.07-15.56,11.91c-0.72,1.59-2.67,2.81-4.31,3.77c-2.38,1.39-5.34,1.95-7.41,3.65
		c-4.78,3.92-10.02,4.53-15.6,2.93c-3.94-1.13-7.71-2.86-11.56-4.32c-6.54-2.86-13.17-4.3-20.26-0.54c-0.85-6.56-0.96-13-8.35-16.41
		c0.98-0.53,1.33-0.84,1.72-0.92c5.31-1.06,9.29-4.17,13.27-7.71c5.38-4.79,10.86-10.01,19.11-8.96c0.66,0.1,1.32,0.19,1.98,0.29
		c0.64,0.29,1.28,0.59,1.93,0.88c0.08-0.19,0.15-0.38,0.23-0.58c-0.56-0.28-1.12-0.55-1.69-0.83c-0.78-0.34-1.56-0.69-2.34-1.03
		c-1.18-0.77-2.31-1.63-3.55-2.28c-4.24-2.21-8.87-3.79-13.5-2.49c-3.3,0.92-5.27-0.05-7.68-1.8c-1.65-1.2-3.8-2.29-5.77-2.37
		c-5.63-0.22-9.58-2.44-11.62-7.8c-0.58-1.52-1.26-2.99-2.12-5.01c-2.72-0.5-5.68-1.55-8.63-1.5c-15.66,0.27-27.47,7.95-36.74,20.01
		c-3.79,4.93-6.01,11.18-12.02,13.63c2.02,4.11,4.23,7.75,5.63,11.67c1.5,4.24,3.97,7.55,7.59,9.92c5.83,3.8,9.72,8.69,11.39,15.64
		c1.03,4.26,4.33,8.07,10.38,5.07c4.23-2.1,8.82-3.76,14.06-2.17c0.96-1.54,2.7-3.05,2.6-4.42c-0.37-5.21,2.99-8.32,6-11.47
		c3.66-3.84,8.15-6.57,13.99-7.46c-3.36,3.58-6.51,6.65-9.32,10c-3.22,3.84-3.24,6.38-0.83,10.72c0.82,1.47,1.52,2.99,2.23,4.41
		c-2.35,1.87-4.3,3.42-6.25,4.97c0.11,0.31,0.21,0.61,0.32,0.92c6.16-0.94,8.21,2.94,9.34,7.79c1.07,0.26,1.98,0.48,3.26,0.8
		c-1.4-5.53,1.15-9.24,4.95-12.2c3.86-3.02,7.95-5.75,11.95-8.58c3.3-2.34,6.76-4.53,7.28-9.11c0.03-0.25,0.69-0.42,1.06-0.63
		c1.66,3.98-0.84,6.52-3.43,8.62c-3.47,2.8-7.35,5.07-10.97,7.69c-2.37,1.72-4.89,3.41-6.77,5.6c-1.65,1.92-2.49,4.53-3.87,7.19
		c1.36,1.05,2.09,1.62,2.82,2.18c-0.13,0.23-0.21,0.54-0.34,0.56c-5.72,1.08-6.73,0.35-8.91-4.69c-0.65-1.51-2.77-3.44-4.07-3.35
		c-1.88,0.14-3.64,1.96-5.41,3.04c0.61,1.72,0.92,2.6,1.27,3.56c-0.33,0.11-0.82,0.36-0.87,0.29c-0.94-1.36-2.45-2.69-2.59-4.15
		c-0.37-3.68-0.12-7.43,0.55-11.42c0.62,1.86,1.25,3.72,1.87,5.57c2.01-1.57,4.19-3.27,6.77-5.29c-4.58-5.5-5.02-11.42,0.3-17.17
		c0.2-0.28,0.4-0.56,1.14-1.58c-1.15,0.5-1.46,0.64-1.77,0.77c-2.56,2.63-5.12,5.26-7.65,7.85c0.81,4.93-1.48,8.23-4.89,11.17
		c-4.4-2.2-8.57-0.28-12.68,1.29c-7.27,2.79-12.1,0.48-13.67-7.15c-1.14-5.52-4.31-9.45-8.74-12.46c-4.84-3.29-8.35-7.24-9.97-13.15
		c-0.94-3.43-3.5-6.42-5.37-9.58c-0.65-1.09-1.43-2.09-2.56-3.73c4.69,1.11,7.21-1.08,9.28-4.03c1.5-2.14,2.82-4.41,4.34-6.53
		c9.68-13.45,22.22-21.88,39.32-22.06c2.23-0.02,4.47,0.71,6.71,1.09c0.28,0.04,0.56,0.08,1.1,0.15c-0.29-0.43-0.44-0.64-0.58-0.86
		c-1.87-5.4-6.65-7.83-10.97-10.71c-2.89-1.93-6.02-3.5-8.81-5.55c-4.85-3.56-5.71-6.28-3.58-11.81c1.35-3.52,1.16-6.67-0.37-10.05
		c-1.57-3.48-2.71-7.16-4.04-10.75c0.35-0.13,0.7-0.27,1.05-0.4c1.97,4.79,4.23,9.5,5.78,14.42c0.62,1.95,0.02,4.5-0.62,6.59
		c-1.76,5.67-1.48,7.38,3.42,10.82c4.35,3.05,8.86,5.89,13.41,8.65c4.38,2.66,6.4,6.98,8.45,11.31c0.84,1.76,1.05,4,2.28,5.35
		c1.88,2.06,4.37,4.93,6.66,4.99c4.98,0.12,8.82,1.77,12.26,5.34c9.24-3.31,16.82,1,24.3,5.32c4.34,2.5,8.28,3.2,12.2-1.12
		c-4.92-7.5-10.87-14.38-17.87-20.33c-7.39-6.28-16.22-9.93-25.06-13.61c-14.29-5.96-27.72-13.42-37.03-26.26
		c-3.04-4.19-4.48-9.54-6.66-14.36c0-0.59,0-1.17,0-1.68c-0.74,0.25-1.19,0.4-1.63,0.55c0.5-1.39,0.99-2.78,1.42-3.99
		c2.16,0.25,3.98,0.46,6.65,0.77c-0.84-1.61-1.14-2.51-1.7-3.2c-3.13-3.85-3.71-8.06-2.58-12.85c1.32-5.58,2.68-11.29-0.5-17.16
		c1.3,0.53,2.59,1.05,4.36,1.77c1.04-1.28,2.41-2.45,3.11-3.92c2.88-6.07,7.71-9.29,14.21-10.07c4.51-0.54,7.86-2.73,10.7-6.15
		c1.18-1.42,2.97-2.34,4.76-3.69c4.43,3.63,7.51,9.06,14.5,7.32c-0.11,0.48-0.22,0.95-0.32,1.43c-1.81,0.58-3.62,1.17-5.68,1.83
		c1.79,0.6,3.26,1.09,5.13,1.72c3.79-8.05,13.74-9.52,19.17-16.39c4.3-5.44,8.97-10.59,13.02-16.19c1.74-2.42,3.55-3.48,6.21-2.92
		c5.76,1.21,11-0.08,15.99-2.87c3.66-2.04,7.39-1.87,10.38,0.74c5.02,4.39,10.4,7.76,17.05,8.88c0.26,0.04,0.47,0.36,0.79,0.62
		c-1.4,1.46-2.75,2.88-4.1,4.3c0.14,0.37,0.28,0.73,0.43,1.1c6.53-5.72,14.22-0.91,21.38-3.82c-0.36,7.87,2.06,14.24,5.77,20.29
		c2.56,4.17,6.05,7.11,10.48,8.96c4.82,2.02,9.12,4.62,10.88,8c0.62,6.28,1.08,11.06,1.65,16.86c3.99-2,7.02-3.3,9.83-4.98
		c5.59-3.33,11.43-5.83,18.02-6.01c1.64-0.04,3.29,0.5,4.93,0.77c0.06,0.32,0.12,0.63,0.18,0.95c-0.61,0.35-1.19,0.82-1.85,1.04
		c-5.16,1.66-6.48,3.63-6.38,9.1c0.04,2.29-0.26,4.59-0.41,6.84c-2.41,0-4.08,0-5.7,0c-0.36,1.55-0.67,2.85-0.97,4.14
		c-1.92-0.18-3.84-0.36-5.76-0.54c-0.02,0.29-0.05,0.58-0.07,0.87c1.94,0.12,3.89,0.23,5.83,0.35c0.43,0.07,0.85,0.15,1.28,0.2
		c2.95,0.32,6.49-0.29,7.96,3.11c1.62,3.75,0.74,7.4-2.05,10.87c-2.26-0.65-3.85-1.87-4.3-4.34c0.72,0.14,1.43,0.29,3.19,0.64
		c-1.35-2.17-2.28-3.67-3.54-5.71c-0.27,2.36-0.43,3.71-0.58,5.07c-2.31,0.29-1.83,1.87-1.69,3.44c0.23,2.69,0.87,5.54,0.23,8.04
		c-0.52,2.03-2.31,4.58-4.14,5.27c-4.91,1.83-8.06,5.26-11.05,9.24c-2.48,3.31-5.19,6.52-9.5,7.62c-0.83,0.21-1.68,0.48-2.52,0.53
		c-15.16,0.82-25.51,9.01-32.93,21.57c-2.7,4.57-4.93,9.42-7.63,14c-0.7,1.18-2.33,1.82-3.49,2.67c2.65-5.01,5-9.82,7.68-14.44
		c2.45-4.22,5.25-8.23,7.9-12.34c1.37-1.23,2.73-2.46,4.1-3.68c0.19-0.12,0.38-0.24,0.11-0.07c0.09-0.36,0.03-0.12-0.03,0.13
		c-1.67,0.83-3.34,1.67-5.02,2.5c-7.52,4.41-12.84,11-17.79,17.96c-0.57,0.8-1.1,1.63-1.71,2.39c-0.18,0.22-0.57,0.27-1.86,0.84
		c0.39-2.86,0.49-5.23,1.07-7.47c2.1-8.17,7.15-14.57,12.77-20.58c9.16-9.8,11.37-21.45,8.91-34.21c-0.46-2.37-1.95-4.58-3.18-6.73
		c-1.17-2.05-2.63-3.94-3.98-5.93c-5.27,3.25-10.77,6.29-15.83,9.94c-1.58,1.14-2.34,3.86-2.82,6.01c-1.14,5.02-1.89,5.79-6.88,5.88
		c-9.97,0.18-19.15,2.55-26.56,9.74c-0.25,0.25-0.64,0.36-1.11,0.3c3.06-5.47,8.29-8.07,13.89-9.55c5.62-1.49,11.49-2.01,17.7-3.03
		c0.25-0.99,0.6-2.2,0.84-3.44c0.81-4.13,2.53-7.38,6.57-9.51c4.21-2.21,8.1-5.07,11.98-7.86c1.14-0.82,1.76-2.36,2.61-3.56
		c-0.27-0.21-0.53-0.42-0.8-0.62c-4.32-0.71-7.88,1.1-11.12,3.57c-6.12,4.67-12.01,9.65-18.23,14.17c-2.73,1.99-5.81,3.94-9.59,3.2
		c-0.69-0.14-1.35-0.44-2.12-0.97c7.89-1.08,11.94-6.28,14.97-12.86c1.86-4.04,4.99-7.05,9.08-8.96c2.07-0.33,4.14-0.66,6.22-0.98
		c-0.81,1.04-1.73,1.67-2.73,1.88c-4.7,1-7.94,3.88-10.32,7.85c-1.4,2.32-2.63,4.74-3.94,7.12c-0.12,0.22-0.24,0.44-0.36,0.66
		c0.08,0.06,0.16,0.11,0.23,0.17c0.15-0.16,0.29-0.32,0.44-0.49c1-0.62,2.09-1.12,2.98-1.87c4.01-3.34,7.9-6.82,11.95-10.1
		c3.83-3.1,8.23-4.75,13.25-4.41l-0.09-0.05c0.87,0.74,1.74,1.49,2.67,2.28c-0.45,1.14-0.88,2.23-1.47,3.73
		c2.95,6.04,8.2,11.3,8.5,18.81c0.28,7.13-0.21,14.09-3.12,20.81c6.92-4.49,13.48-9.12,20.08-13.69c5.25-3.63,9.21-8.19,11.35-14.32
		c1.95-5.56,4.18-11.03,6.88-18.11c-1.49-5.28-6.37-11.84-3.61-19.71c-2.36-4.21-6.2-6.22-10.25-7.89
		c-5.09-2.1-9.06-5.38-12.02-10.1c-3.57-5.7-5.62-11.84-6.17-18.06c-3.18-0.17-6.11-0.61-8.99-0.4c-2.48,0.18-5.43,0.44-7.24,1.86
		c-3.04,2.38-5.33,5.71-8.29,9.04c-1.28-5.9,2.3-9.94,4.54-13.43c-4.73-3.2-9.38-6.28-13.95-9.48c-2.94-2.06-5.69-2.5-9.07-0.7
		c-4.93,2.62-10.14,4.5-15.96,2.79c-1.19-0.35-2.58-0.05-3.86-0.05c-0.63,1.04-1.2,1.96-1.75,2.89
		c-5.83,9.82-13.64,17.68-23.39,23.62c-3.43,2.09-6.99,3.98-8.62,8.08c-0.29,0.73-1.65,1.04-2.47,1.51
		c-0.99-0.92-1.67-1.56-2.39-2.23c-1.29,0.37-2.45,0.71-3.16,0.91c2.21,3.63,4.34,7.12,6.47,10.61c-0.19,0.13-0.37,0.27-0.56,0.4
		c-2.99-3.78-5.99-7.56-9.17-11.57c1.41-1.21,2.95-2.54,4.05-3.49c-2.65-2.33-5.26-4.62-8.07-7.09c-0.86,0.68-1.78,1.13-2.3,1.87
		c-3.34,4.79-7.94,7.18-13.68,7.86c-5.36,0.64-9.03,3.71-11.76,8.35c-1.31,2.22-3.55,3.9-5.3,5.75c-0.35,3.35-0.49,7.14-1.19,10.81
		c-1,5.25-1.88,10.26,2.21,14.79c0.88,0.98,0.7,2.92,1.1,4.92c-2.42,0.27-4.19,0.46-6.97,0.77c2.42,5.25,4.08,10.66,7.14,15.1
		c7.49,10.89,18.55,17.56,30.19,23.23c6.24,3.04,12.68,5.66,18.97,8.58c2.93,1.36,5.74,3.01,8.6,4.53l-0.07-0.05
		c0.47,0.23,0.95,0.45,1.42,0.68l-0.08-0.07c-0.02,0.17-0.04,0.34-0.07,0.57c0.27,0.06,0.54,0.12,0.81,0.17l-0.08-0.08
		c0.24,0.25,0.49,0.49,0.73,0.74l-0.08-0.08c0.08,0.15,0.16,0.3,0.24,0.45c0.16-0.14,0.32-0.29,0.48-0.43l-0.09,0.05
		c1.31,1.44,2.6,2.9,3.94,4.31c1.39,1.46,2.83,2.87,4.25,4.3c1.31,1.47,2.63,2.95,3.94,4.42c0.23-0.15,0.46-0.3,0.69-0.44
		c-0.7-1.72-1.41-3.45-2.11-5.17c-2.25-7.8-3.26-15.7-0.82-23.61c0.9-2.9,1.67-6.24,5.42-7.13L126.41,122.56z M10.89,181.98
		c0.25,0,0.5,0,0.74,0c0.01-0.1,0.02-0.2,0.03-0.3c-0.26-0.06-0.51-0.11-0.77-0.17c-0.17,0.05-0.34,0.11-0.53,0.17
		C10.55,181.78,10.72,181.88,10.89,181.98z M68.53,229.2c-0.14,0.55-0.28,1.1-0.43,1.63c-0.18-0.09-0.36-0.18-0.1-0.05
		c-0.31-0.02-0.11-0.01,0.09,0.01c0.33-0.34,0.65-0.69,0.98-1.03c0.07-0.17,0.13-0.35,0.2-0.52
		C69.03,229.22,68.78,229.21,68.53,229.2z M227.18,98.98c-0.2-0.17-0.41-0.34-0.61-0.51c1.92-4.31,3.84-8.62,6.09-13.68
		c1.78,0,4.48,0,6.91,0c0.17-1.09,0.07-2.63,0.5-2.79c2.03-0.78,4.2-1.18,6.46-1.75c0.3-4.77-1.43-10.29,4.01-13.96
		c-9.7,0.41-16.63,6.82-24.7,9.71c0.32,2.67,0.59,4.92,0.86,7.17c-0.31-0.09-0.63-0.17-0.94-0.26c-1.85,4.82-3.79,9.61-5.52,14.48
		c-1.77,5-3.89,9.8-8.21,13.09c-5.19,3.96-10.54,7.72-15.89,11.46c-10.55,7.38-19.97,15.88-26.47,27.15
		c-1.58,2.75-2.48,5.89-3.69,8.85c6.13-8,12.84-15.04,21.66-19.85c7.28-3.97,14.73-8.18,23.1-8.33c7.05-0.12,11.41-3.27,15.08-8.52
		c2.67-3.81,5.77-7.05,10.46-8.4c2.42-0.7,3.68-2.46,3.83-5.08c0.3-5.2,0.74-10.39,1.2-16.66c2.14,0.56,3.95,0.54,4.99,1.42
		c1.24,1.06,1.83,2.9,2.74,4.47c0-1.96,0-3.77,0-6.23c-5.38-0.78-10.63-1.54-16-2.32C232.22,92.13,231,96.26,227.18,98.98z
		 M123.75,159.7c0.07,0,0.15,0,0.22,0c0-0.22,0-0.44,0-0.65c-0.07,0-0.15,0-0.22,0C123.75,159.26,123.75,159.48,123.75,159.7z
		 M172.86,25.45c0.07,0,0.15,0,0.22,0c0-0.22,0-0.44,0-0.65c-0.07,0-0.15,0-0.22,0C172.86,25.02,172.86,25.23,172.86,25.45z" class="color181819 svgShape"></path><path fill="#e9e8e8" d="M71.81 92.21c3.3 6.09 7.08 11.98 9.81 18.32 4.65 10.82 11.35 19.74 21.16 26.32 1.98 1.33 3.96 2.77 5.59 4.49 1.19 1.26 1.8 3.06 2.66 4.63 0 0 .09-.05.09-.05-.24 0-.48-.01-.72-.01 0 0 .08.08.08.08-.24-.25-.49-.49-.73-.74l.08.08c-.24-.25-.49-.5-.73-.74 0 0 .08.07.08.07-.47-.23-.95-.45-1.42-.68 0 0 .07.05.07.05-2.01-1.85-3.84-3.98-6.08-5.51-8.64-5.93-15.42-13.41-19.94-22.89-2.53-5.3-4.9-10.68-7.51-15.93-1.01-2.04-2.5-3.84-3.97-6.06 1.64 6.37 3.47 12.15 4.55 18.06 1.25 6.89 3.72 12.91 9.16 17.51.18.15.2.49.36.94-.51-.13-.82-.16-1.08-.29-.48-.26-.94-.56-1.37-.89-5.58-4.27-7.61-10.45-8.84-16.95-1.63-8.61-3.54-17.04-10.25-23.41-.25-.24-.22-.78-.43-1.65 5.25 1.47 9.65-.43 13.87-2.58 5.54-2.83 11.09-5.43 17.49-5.07 0-2.93-.27-5.56.08-8.12.32-2.34.94-4.79 2.05-6.85 2.21-4.07 4.85-7.91 7.32-11.84 2.43-3.86 4.43-8.09 7.39-11.5 6.16-7.11 16.68-11.66 26.96-5.56 5.54 3.29 11.71 3.83 17.98 2.24 1.83-.46 3.62-1.08 5.91-1.77-.47 1.77-.82 3.08-1.31 4.93.96 1.05 1.97 2.44 3.26 3.52 5.07 4.26 8.52 9.03 6.1 16.12-.41 1.21-.57 2.55-.63 3.84-.19 4.07-1.42 8.25 1.09 12.07 3.4.58 6.78 1.17 10.48 1.8-1.02-5.51-.04-10.48 3.49-14.97-1.08-.73-2.01-1.36-2.75-1.86-1.43 2.6-2.69 4.9-3.94 7.2-.24-.15-.48-.29-.73-.44 1.94-6.54 4.18-12.86 11.17-14.98-.97-3.82-1.8-7.13-2.67-10.56-5.76-.11-10.39 2.47-14.37 6.76.18-.9.35-1.8.48-2.47-1.47-.56-2.89-1.09-4.31-1.62 7.33.63 13.11-6.48 20.11-4.22 1.04 4.65 1.97 8.8 2.85 12.75-2.73 1.87-5.15 3.53-7.91 5.42 1.88 1.44 3.15 2.4 4.73 3.61-4.3 5.09-5.94 10.82-4.12 17.65-1.07 0-1.9 0-2.72 0 0 0 .09.05.09.05-5.81-2.53-11.8-2.11-17.83-1.13-6.54 1.79-13.14 3.37-19.6 5.43-5.53 1.77-10.89 4.08-16.33 6.16l-.14-.21c0 0-.25.03-.25.03 1.64-.87 3.23-1.85 4.93-2.6 8.42-3.73 16.53-8.27 25.78-9.83 3.62-.61 7.24-1.18 11.16-1.81-3.15-3.73-5.43-7.59-4.92-12.53.18-1.73-.01-3.49.06-5.23.15-3.42-1.38-5.51-4.65-6.57-2.38-.78-4.66-1.88-6.75-2.74-1.53 1.2-3.14 2.46-5.02 3.93 1.55 1.25 3.11 2.52 5.01 4.06-3.29 1-4.14 5.81-8.71 4.67-.06-.99-.12-1.82-.17-2.65.19-.07.38-.15.11-.04.13-.29.04-.09-.05.12-.79.21-1.58.41-2.64.69.13-1.28.23-2.29.36-3.54-2.09.58-4.02 1.11-5.96 1.65 1.96 5.09 5.1 6.7 10.06 5.14 2.27-.72 4.43-1.78 6.68-2.56 1.38-.48 2.83-.72 3.52-.89 2.05 3.62 3.78 6.67 5.71 10.08-3.98-1.65-5.54-4.71-6.53-8.35-6.13 2.2-11.87 6.24-17.88 2.38-1.08 3.66-1.69 7.34-3.25 10.57-2.07 4.28-4.93 8.18-7.37 12.28-.78 1.31-2.19 2.81.23 4.01.2.3.39.6.59.9 1.56 2.62 3.89 5.05 2.21 8.81-1 .07-2.04.15-2.99.22-3.53-2.78-3.7-6.56-3.65-10.29-2.54-1.69-4.96-3.3-7.39-4.91-.64-.3-1.28-.59-1.92-.89-4.93-1.09-9.85-2.28-14.8-3.25-5.14-1-10.13-.35-14.91 1.89-3.83 1.79-7.7 3.49-11.55 5.23-.78.19-1.56.39-2.82.7C69.66 90.52 70.73 91.36 71.81 92.21zM144.38 57.43c-.11.15-.23.3-.07.09 0 .24 0 .03.01-.16.17.01.34.02.16.01C144.68 57.25 144.53 57.34 144.38 57.43zM111.46 83.64c.29.11.58.22 1.8.69-.88-.98-1.1-1.22-1.31-1.46-.87-2.12-1.74-4.23-2.61-6.35.41.06.82.13 1.22.19 2.06-2.28 4.25-4.46 6.14-6.87 2.36-3.02 4.51-6.21 8.43-7.39 2.05-.62 4.14-1.13 6.19 1.3-5.77-.99-9.22 1.65-12.09 5.75-2.13 3.03-4.63 5.8-7.33 9.13 1.81 4.35 5.31 7.87 10.71 9.74 2.96-5.08 5.91-10.02 8.73-15.03 2.99-5.29 1.67-11.12 1.25-17.45 4.06 1.55 7.21-2.32 11.38-.07.13-.04.91-.29 1.27-.4-.3-1.92-.58-3.68-.95-6.02 1.53.77 2.25 1.13 3.05 1.53 1.45-1.59 2.77-3.05 3.62-3.99 2.68 1.28 4.69 2.53 6.87 3.23 4.54 1.46 5.98 2.93 6.49 7.77.2 1.94-.02 3.92.18 5.86.26 2.46.77 4.9 1.17 7.35 1.23-3.88 1.4-7.69 2.36-11.29 1.61-6.01-.97-10.11-5.36-13.54-2.41-1.88-4.45-3.87-4.1-7.35-1.17.14-2.14.2-3.09.39-6.91 1.39-13.58 1.17-19.86-2.52-5.95-3.49-11.85-2.86-17.62.54-6.62 3.9-10.05 10.32-13.47 16.83-1.9 3.62-4.15 7.11-6.64 10.36-1.61 2.11-2.69 4.06-2.49 6.79.2 2.66.04 5.35.04 8.54 4.03-.26 7.73-.5 11.57-.75-.54.61-1.07 1.2-1.71 1.91C107.49 81.97 109.47 82.81 111.46 83.64zM125.48 99.5c.5-.13 1-.27 1.51-.4.63-2.83-1.4-4.54-3.09-6.39-.28.11-.56.22-.84.32C123.87 95.18 124.68 97.34 125.48 99.5zM144.07 60.38c.15.17.3.35.46.52.62-.52 1.25-1.04 1.87-1.56-.18-.2-.36-.4-.53-.6C145.26 59.29 144.67 59.83 144.07 60.38zM177.35 173.81c5.74-.37 11.48-1.11 17.2-1.03 8.35.12 13.63 5.4 18.07 12.34 1.23-.7 2.68-1.12 3.54-2.07 5.88-6.56 13.52-8.71 22.04-9.05 1.18-6.12 9.69-8.3 8.31-16.05-2.36-3.77-6.26-2.79-9.86-2.57-3.03.19-6.04.84-9.07 1.03-7.44.48-8.74-.51-10.67-8.05-1.5 1.33-2.91 2.45-4.16 3.72-4.21 4.28-8.37 8.53-14.65 9.82-1.36.28-2.98 1.32-3.67 2.5-3.64 6.16-9.57 7.36-15.91 7.84-.43.03-.87.07-1.3.11-1.12-.29-2.24-.57-3.23-.83 2.9-3.03 5.61-5.58 7.98-8.42 3.42-4.09 7.77-6.5 12.77-8.02 1.86-.56 3.76-1.15 5.44-2.09 3.39-1.9 6.2-4.15 6.03-8.8-.09-2.51 1.1-5.05 1.59-7.59.64-3.32 2.92-4.22 6.06-4.24-5.63 3.54-5.02 9.39-5.95 14.73-.29 1.67-1.22 3.69-2.52 4.63-2.77 1.99-5.81 4-9.04 4.89-7.63 2.11-12.84 6.99-17.15 13.21-.3.22-.6.45-.9.67.06.1.11.2.17.3.25-.18.5-.35.74-.53 5.52-.32 10.36-1.74 13.58-6.89.93-1.49 2.96-2.72 4.73-3.19 5.45-1.43 9.28-5.02 13.07-8.81 2.3-2.3 4.72-4.5 7.13-6.69.42-.38 1.11-.48 1.99-.84 0 3.23 0 6.19 0 8.9 3.86 2.52 7.59 1.63 11.24 1.35 3.36-.26 6.71-.97 10.05-.89 7.4.16 10.22 5.63 6.11 11.84-1.9 2.87-4.36 5.38-6.54 8.02.11 1.05.21 1.98.31 2.95-3.12.26-6.12.35-9.07.81-5.07.78-9.49 2.92-13.15 6.65-2.8 2.86-3.97 3.2-7.49 3.02-3.51-5.03-6.29-5.95-10.29-3.12-1.05.74-1.83 2.08-2.34 3.31-1.58 3.8-2.95 4.69-6.95 4.01-7.44-1.27-14.71-1.42-21.57 3.53-1.4-4.17-2.65-7.88-3.9-11.58.73.47 1.79.77 2.11 1.44 1.11 2.29 1.95 4.7 2.97 7.25 7.39-4.78 15.55-3.22 24.02-2.1 1.56-5.19 3.93-9.45 10.86-9.43-5.85-4.75-11.79-6.71-17.99-5.19-10.71 2.63-20.35-.79-30.5-3.99.84-.3 1.4-.5 1.97-.71 3.75.94 7.48 1.93 11.24 2.79C172.95 173.18 175.16 173.44 177.35 173.81z" class="color181819 svgShape"></path><path fill="#fbfbfb" d="M162.07,79.35c6.03-0.97,12.02-1.4,17.83,1.13c-5.02-0.34-9.42,1.31-13.25,4.41
		c-4.05,3.28-7.94,6.77-11.95,10.1c-0.89,0.74-1.98,1.25-2.98,1.87c-0.1-0.11-0.21-0.23-0.31-0.34c1.31-2.38,2.55-4.8,3.94-7.12
		c2.38-3.97,5.63-6.85,10.32-7.85c1.01-0.21,1.93-0.84,2.73-1.88c-2.07,0.33-4.14,0.66-6.22,0.98
		C162.15,80.22,162.11,79.78,162.07,79.35z" class="colorfbfbfb svgShape"></path><path fill="#e9e8e8" d="M161.99,203.09c-4.57,4-8.43,7.36-11.97,10.45c0.14-2.56,5.06-7.63,11.3-11.07c-2.23-4.51-2.96-4.81-7.02-2.87
		c-0.66-0.79-1.33-1.58-2.15-2.56c0.85-0.67,1.91-1.52,3.35-2.66c0.27,1.09,0.43,1.7,0.63,2.51c3.66-0.72,5.38,1.92,6.99,4.72
		c0.24,0.78,0.49,1.55,0.83,2.64c0.12-1.1,0.21-1.85,0.29-2.6c-0.36-3.09-0.73-6.18-1.13-9.54c2.43,1.27,3.65,3.9,3.52,6.33" class="color181819 svgShape"></path><path fill="#fbfbfb" d="M243.35 97.48c.16-1.36.31-2.72.58-5.07 1.27 2.04 2.2 3.54 3.54 5.71-1.75-.35-2.47-.5-3.19-.64C243.98 97.48 243.66 97.48 243.35 97.48zM121.74 153.39c.7 1.72 1.41 3.45 2.11 5.17-.23.15-.46.3-.69.44-1.31-1.47-2.63-2.95-3.94-4.42C120.06 154.18 120.9 153.78 121.74 153.39zM241.4 87.63c-1.94-.12-3.89-.23-5.83-.35.02-.29.05-.58.07-.87 1.92.18 3.84.36 5.76.54C241.4 87.18 241.4 87.41 241.4 87.63zM71.81 92.21c-1.07-.85-2.15-1.69-3.58-2.82 1.26-.31 2.04-.51 2.82-.7C71.3 89.86 71.55 91.04 71.81 92.21zM165.54 177.07c1.06.55 2.11 1.1 3.17 1.65-.07.17-.14.34-.21.51-1.02 0-2.05 0-3.07 0C165.47 178.52 165.51 177.79 165.54 177.07zM40.59 93.74c.45-.15.89-.3 1.63-.55 0 .5 0 1.09 0 1.68-.5.09-1 .19-1.76.33C40.51 94.65 40.55 94.19 40.59 93.74zM164.23 201.64c-.08.75-.17 1.49-.29 2.6-.34-1.09-.59-1.87-.83-2.64C163.48 201.61 163.86 201.63 164.23 201.64zM112.31 84.82c.64.3 1.28.59 1.92.89C113.59 85.41 112.95 85.11 112.31 84.82zM84.8 192.03c-.48-.34-.95-.68-1.76-1.26.9-.16 1.38-.24 1.85-.32C84.86 190.98 84.83 191.5 84.8 192.03zM179.22 170.25c-.25.18-.5.35-.74.53-.06-.1-.11-.2-.17-.3.3-.22.6-.45.9-.67C179.21 169.96 179.22 170.11 179.22 170.25zM179.2 82.51c.27.21.53.42.8.62C179.73 82.92 179.46 82.71 179.2 82.51zM162.74 182.81c-.22-.15-.43-.3-.75-.52.35-.11.59-.19.83-.26C162.79 182.29 162.77 182.55 162.74 182.81z" class="colorfbfbfb svgShape"></path><path fill="#e9e8e8" d="M126.34,122.65l-0.06-0.15c0,0,0.12,0.07,0.12,0.07C126.41,122.56,126.34,122.65,126.34,122.65z" class="color181819 svgShape"></path><path fill="#fbfbfb" d="M126.05 91.87c-.2-.3-.39-.6-.59-.9.1-.08.2-.15.31-.21l.25-.03.14.21C126.11 91.25 126.08 91.56 126.05 91.87zM190.31 139.38c-1.37 1.23-2.73 2.46-4.1 3.68-.28-.38-.56-.75-.84-1.13 1.67-.83 3.34-1.67 5.02-2.5L190.31 139.38zM112.96 172.6c.04-.42.07-.84.11-1.26.78.34 1.56.69 2.34 1.03-.16.17-.31.35-.47.52C114.27 172.79 113.61 172.69 112.96 172.6zM68.11 230.85c.14-.55.28-1.1.42-1.65.18.19.36.37.54.56-.33.34-.65.69-.98 1.03C68.1 230.79 68.11 230.85 68.11 230.85z" class="colorfbfbfb svgShape"></path><path fill="#fbfbfb" d="M115.41 172.37c.56.28 1.12.55 1.69.83-.08.19-.15.38-.23.58-.64-.29-1.28-.59-1.93-.88C115.09 172.71 115.25 172.54 115.41 172.37zM107.76 143.97c.47.23.95.45 1.42.68C108.7 144.42 108.23 144.19 107.76 143.97zM123.75 159.7c0-.22 0-.44 0-.65.07 0 .15 0 .22 0 0 .22 0 .44 0 .65C123.89 159.7 123.82 159.7 123.75 159.7zM109.74 145.24c.24.25.49.49.73.74C110.23 145.73 109.99 145.49 109.74 145.24zM10.89 181.98c-.17-.1-.34-.19-.53-.3.19-.06.36-.11.53-.17C10.91 181.67 10.9 181.82 10.89 181.98z" class="colorfbfbfb svgShape"></path><path fill="#fefefe" d="M10.89,181.98c0.01-0.15,0.01-0.31,0-0.46c0.26,0.06,0.51,0.11,0.77,0.17c-0.01,0.1-0.02,0.2-0.03,0.3
		C11.39,181.98,11.14,181.98,10.89,181.98z" class="colorfefefe svgShape"></path><path fill="#fbfbfb" d="M109.1 144.58c.24.25.49.5.73.74-.27-.06-.54-.11-.81-.17C109.05 144.92 109.07 144.75 109.1 144.58zM110.39 145.9c.24 0 .48.01.72.01-.16.14-.32.29-.48.43C110.55 146.2 110.47 146.05 110.39 145.9zM190.39 139.44c.06-.24.12-.49.03-.13.27-.17.08-.05-.11.07C190.31 139.38 190.39 139.44 190.39 139.44zM89.76 203.22c-.24.08-.48.17-.83.29 0-.37 0-.62 0-.87C89.2 202.83 89.48 203.03 89.76 203.22z" class="colorfbfbfb svgShape"></path><path fill="#fefefe" d="M72.79 205.02c.31-.14.62-.27 1.77-.77-.74 1.02-.94 1.3-1.14 1.58C73.21 205.56 73 205.29 72.79 205.02zM69.08 229.75c-.18-.19-.36-.37-.54-.56.25.01.49.03.74.04C69.21 229.41 69.14 229.58 69.08 229.75z" class="colorfefefe svgShape"></path><path fill="#fbfbfb" d="M68.1 230.79c-.2-.02-.4-.03-.09-.01-.26-.13-.08-.04.1.06C68.11 230.85 68.1 230.79 68.1 230.79zM151.72 96.86c-.15.16-.29.32-.44.49-.08-.06-.15-.11-.23-.17.12-.22.24-.44.36-.66C151.51 96.63 151.61 96.75 151.72 96.86z" class="colorfbfbfb svgShape"></path><path fill="#fefefe" d="M67.42,147.04c0.15,0.22,0.29,0.43,0.58,0.86c-0.55-0.07-0.82-0.11-1.1-0.15
		C67.08,147.52,67.25,147.28,67.42,147.04z" class="colorfefefe svgShape"></path><ellipse cx="172.97" cy="25.13" fill="#fefefe" rx=".15" ry=".46" class="colorfefefe svgShape"></ellipse><path fill="#fbfbfb" d="M125.48 99.5c-.81-2.16-1.61-4.31-2.42-6.47.28-.11.56-.22.84-.32 1.69 1.85 3.72 3.56 3.09 6.39C126.49 99.23 125.98 99.36 125.48 99.5zM144.07 60.38c.6-.55 1.2-1.09 1.8-1.64.18.2.36.4.53.6-.62.52-1.25 1.04-1.87 1.56C144.37 60.72 144.22 60.55 144.07 60.38zM142.54 59.52c.09-.2.18-.41.05-.12.27-.11.08-.03-.11.04C142.48 59.45 142.54 59.52 142.54 59.52zM144.31 57.34c0 .21 0 .42 0 .17-.16.21-.05.06.07-.09L144.31 57.34z" class="colorfbfbfb svgShape"></path><path fill="#fbfbfb" d="M144.38 57.43c.15-.09.3-.18.11-.06.17.01 0 0-.17-.02C144.31 57.34 144.38 57.43 144.38 57.43zM111.95 82.87c.22.24.43.48 1.31 1.46-1.23-.47-1.52-.58-1.8-.69C111.62 83.39 111.78 83.13 111.95 82.87z" class="colorfbfbfb svgShape"></path><path fill="#e9e8e8" d="M94.53 59.19c.05.28.1.56.23 1.34-.48-.56-.63-.75-.79-.94C94.16 59.46 94.35 59.32 94.53 59.19zM227.18 98.98c-.18.19-.36.37-.91.95.17-.81.23-1.14.3-1.46C226.77 98.64 226.97 98.81 227.18 98.98z" class="color181819 svgShape"></path></svg></g></svg>