<?xml version="1.0" encoding="utf-8"?>
<!-- Generator: Adobe Illustrator 23.0.6, SVG Export Plug-In . SVG Version: 6.00 Build 0)  -->
<svg version="1.1" id="Capa_1" xmlns="http://www.w3.org/2000/svg" xmlns:xlink="http://www.w3.org/1999/xlink" x="0px" y="0px"
	 viewBox="0 0 308.15 486.6" style="enable-background:new 0 0 308.15 486.6;" xml:space="preserve">
<style type="text/css">
	.st0{fill:#181819;}
	.st1{fill:#FBFBFB;}
	.st2{fill:#FEFEFE;}
</style>
<g>
	<path class="st0" d="M164.43,123.7c-7.35,11.54-5.88,23.28-0.86,35.14c1.84,4.34,3.49,8.76,5.14,12.93
		c-3.97,3.39-7.47,5.63-12.12,3.8c-1.08,0.1-2.23,0.51-3.22,0.26c-5.62-1.4-10.36-0.01-14.79,3.7c-5.05,4.22-10.43,8.06-15.67,12.06
		c-0.48,0.08-0.96,0.17-1.85,0.32c0.81,0.58,1.29,0.92,1.76,1.26c1.38,3.54,2.75,7.07,4.13,10.61c0,0.25,0,0.5,0,0.87
		c0.35-0.12,0.59-0.2,0.83-0.29c7.82-1.85,14.93,0.52,22.12,3.3c4.38,1.69,9.07,2.89,13.72,3.39c2.24,0.24,4.8-1.48,7.06-2.62
		c3.3-1.67,6.47-3.61,10.08-4.85c3.88-8.45,9.39-15.1,20.64-15.48c-1.85-2.07-2.95-3.3-4.83-5.4c2.72-0.92,4.81-1.62,6.89-2.32
		c1.02,0,2.05,0,3.07,0c0.07-0.17,0.14-0.34,0.21-0.51c-1.06-0.55-2.11-1.1-3.17-1.65c-6.7-3.63-13.87-3.92-21.22-3.02
		c-3.05,0.37-6.04,0.61-8.61-1.8c-0.84-0.79-2.29-0.93-3.82-1.51c2.68-1.34,4.37,0.63,6.38,1.12c2.09,0.51,4.4,0.25,6.6,0.17
		c2.27-0.09,4.68,0.06,6.75-0.69c2.05-0.74,3.66-2.62,5.62-3.72c1.93-1.08,4.05-1.82,6.55-2.39c-1.43,1.18-2.85,2.36-4.28,3.54
		c-1.6,0.82-3.19,1.63-5.48,2.81c7.72,1.59,14.54,2.58,19.14,9.92c-3.02,0-5.05,0-7.07,0c-1.09,0.18-2.18,0.36-3.27,0.54
		c-0.24,0.08-0.48,0.15-0.83,0.26c0.32,0.22,0.53,0.37,0.75,0.52c0.92,1.36,1.83,2.73,3.05,4.54c-1.69,0.84-2.76,1.8-3.89,1.86
		c-7.98,0.4-12.46,5.07-15.56,11.91c-0.72,1.59-2.67,2.81-4.31,3.77c-2.38,1.39-5.34,1.95-7.41,3.65
		c-4.78,3.92-10.02,4.53-15.6,2.93c-3.94-1.13-7.71-2.86-11.56-4.32c-6.54-2.86-13.17-4.3-20.26-0.54c-0.85-6.56-0.96-13-8.35-16.41
		c0.98-0.53,1.33-0.84,1.72-0.92c5.31-1.06,9.29-4.17,13.27-7.71c5.38-4.79,10.86-10.01,19.11-8.96c0.66,0.1,1.32,0.19,1.98,0.29
		c0.64,0.29,1.28,0.59,1.93,0.88c0.08-0.19,0.15-0.38,0.23-0.58c-0.56-0.28-1.12-0.55-1.69-0.83c-0.78-0.34-1.56-0.69-2.34-1.03
		c-1.18-0.77-2.31-1.63-3.55-2.28c-4.24-2.21-8.87-3.79-13.5-2.49c-3.3,0.92-5.27-0.05-7.68-1.8c-1.65-1.2-3.8-2.29-5.77-2.37
		c-5.63-0.22-9.58-2.44-11.62-7.8c-0.58-1.52-1.26-2.99-2.12-5.01c-2.72-0.5-5.68-1.55-8.63-1.5c-15.66,0.27-27.47,7.95-36.74,20.01
		c-3.79,4.93-6.01,11.18-12.02,13.63c2.02,4.11,4.23,7.75,5.63,11.67c1.5,4.24,3.97,7.55,7.59,9.92c5.83,3.8,9.72,8.69,11.39,15.64
		c1.03,4.26,4.33,8.07,10.38,5.07c4.23-2.1,8.82-3.76,14.06-2.17c0.96-1.54,2.7-3.05,2.6-4.42c-0.37-5.21,2.99-8.32,6-11.47
		c3.66-3.84,8.15-6.57,13.99-7.46c-3.36,3.58-6.51,6.65-9.32,10c-3.22,3.84-3.24,6.38-0.83,10.72c0.82,1.47,1.52,2.99,2.23,4.41
		c-2.35,1.87-4.3,3.42-6.25,4.97c0.11,0.31,0.21,0.61,0.32,0.92c6.16-0.94,8.21,2.94,9.34,7.79c1.07,0.26,1.98,0.48,3.26,0.8
		c-1.4-5.53,1.15-9.24,4.95-12.2c3.86-3.02,7.95-5.75,11.95-8.58c3.3-2.34,6.76-4.53,7.28-9.11c0.03-0.25,0.69-0.42,1.06-0.63
		c1.66,3.98-0.84,6.52-3.43,8.62c-3.47,2.8-7.35,5.07-10.97,7.69c-2.37,1.72-4.89,3.41-6.77,5.6c-1.65,1.92-2.49,4.53-3.87,7.19
		c1.36,1.05,2.09,1.62,2.82,2.18c-0.13,0.23-0.21,0.54-0.34,0.56c-5.72,1.08-6.73,0.35-8.91-4.69c-0.65-1.51-2.77-3.44-4.07-3.35
		c-1.88,0.14-3.64,1.96-5.41,3.04c0.61,1.72,0.92,2.6,1.27,3.56c-0.33,0.11-0.82,0.36-0.87,0.29c-0.94-1.36-2.45-2.69-2.59-4.15
		c-0.37-3.68-0.12-7.43,0.55-11.42c0.62,1.86,1.25,3.72,1.87,5.57c2.01-1.57,4.19-3.27,6.77-5.29c-4.58-5.5-5.02-11.42,0.3-17.17
		c0.2-0.28,0.4-0.56,1.14-1.58c-1.15,0.5-1.46,0.64-1.77,0.77c-2.56,2.63-5.12,5.26-7.65,7.85c0.81,4.93-1.48,8.23-4.89,11.17
		c-4.4-2.2-8.57-0.28-12.68,1.29c-7.27,2.79-12.1,0.48-13.67-7.15c-1.14-5.52-4.31-9.45-8.74-12.46c-4.84-3.29-8.35-7.24-9.97-13.15
		c-0.94-3.43-3.5-6.42-5.37-9.58c-0.65-1.09-1.43-2.09-2.56-3.73c4.69,1.11,7.21-1.08,9.28-4.03c1.5-2.14,2.82-4.41,4.34-6.53
		c9.68-13.45,22.22-21.88,39.32-22.06c2.23-0.02,4.47,0.71,6.71,1.09c0.28,0.04,0.56,0.08,1.1,0.15c-0.29-0.43-0.44-0.64-0.58-0.86
		c-1.87-5.4-6.65-7.83-10.97-10.71c-2.89-1.93-6.02-3.5-8.81-5.55c-4.85-3.56-5.71-6.28-3.58-11.81c1.35-3.52,1.16-6.67-0.37-10.05
		c-1.57-3.48-2.71-7.16-4.04-10.75c0.35-0.13,0.7-0.27,1.05-0.4c1.97,4.79,4.23,9.5,5.78,14.42c0.62,1.95,0.02,4.5-0.62,6.59
		c-1.76,5.67-1.48,7.38,3.42,10.82c4.35,3.05,8.86,5.89,13.41,8.65c4.38,2.66,6.4,6.98,8.45,11.31c0.84,1.76,1.05,4,2.28,5.35
		c1.88,2.06,4.37,4.93,6.66,4.99c4.98,0.12,8.82,1.77,12.26,5.34c9.24-3.31,16.82,1,24.3,5.32c4.34,2.5,8.28,3.2,12.2-1.12
		c-4.92-7.5-10.87-14.38-17.87-20.33c-7.39-6.28-16.22-9.93-25.06-13.61c-14.29-5.96-27.72-13.42-37.03-26.26
		c-3.04-4.19-4.48-9.54-6.66-14.36c0-0.59,0-1.17,0-1.68c-0.74,0.25-1.19,0.4-1.63,0.55c0.5-1.39,0.99-2.78,1.42-3.99
		c2.16,0.25,3.98,0.46,6.65,0.77c-0.84-1.61-1.14-2.51-1.7-3.2c-3.13-3.85-3.71-8.06-2.58-12.85c1.32-5.58,2.68-11.29-0.5-17.16
		c1.3,0.53,2.59,1.05,4.36,1.77c1.04-1.28,2.41-2.45,3.11-3.92c2.88-6.07,7.71-9.29,14.21-10.07c4.51-0.54,7.86-2.73,10.7-6.15
		c1.18-1.42,2.97-2.34,4.76-3.69c4.43,3.63,7.51,9.06,14.5,7.32c-0.11,0.48-0.22,0.95-0.32,1.43c-1.81,0.58-3.62,1.17-5.68,1.83
		c1.79,0.6,3.26,1.09,5.13,1.72c3.79-8.05,13.74-9.52,19.17-16.39c4.3-5.44,8.97-10.59,13.02-16.19c1.74-2.42,3.55-3.48,6.21-2.92
		c5.76,1.21,11-0.08,15.99-2.87c3.66-2.04,7.39-1.87,10.38,0.74c5.02,4.39,10.4,7.76,17.05,8.88c0.26,0.04,0.47,0.36,0.79,0.62
		c-1.4,1.46-2.75,2.88-4.1,4.3c0.14,0.37,0.28,0.73,0.43,1.1c6.53-5.72,14.22-0.91,21.38-3.82c-0.36,7.87,2.06,14.24,5.77,20.29
		c2.56,4.17,6.05,7.11,10.48,8.96c4.82,2.02,9.12,4.62,10.88,8c0.62,6.28,1.08,11.06,1.65,16.86c3.99-2,7.02-3.3,9.83-4.98
		c5.59-3.33,11.43-5.83,18.02-6.01c1.64-0.04,3.29,0.5,4.93,0.77c0.06,0.32,0.12,0.63,0.18,0.95c-0.61,0.35-1.19,0.82-1.85,1.04
		c-5.16,1.66-6.48,3.63-6.38,9.1c0.04,2.29-0.26,4.59-0.41,6.84c-2.41,0-4.08,0-5.7,0c-0.36,1.55-0.67,2.85-0.97,4.14
		c-1.92-0.18-3.84-0.36-5.76-0.54c-0.02,0.29-0.05,0.58-0.07,0.87c1.94,0.12,3.89,0.23,5.83,0.35c0.43,0.07,0.85,0.15,1.28,0.2
		c2.95,0.32,6.49-0.29,7.96,3.11c1.62,3.75,0.74,7.4-2.05,10.87c-2.26-0.65-3.85-1.87-4.3-4.34c0.72,0.14,1.43,0.29,3.19,0.64
		c-1.35-2.17-2.28-3.67-3.54-5.71c-0.27,2.36-0.43,3.71-0.58,5.07c-2.31,0.29-1.83,1.87-1.69,3.44c0.23,2.69,0.87,5.54,0.23,8.04
		c-0.52,2.03-2.31,4.58-4.14,5.27c-4.91,1.83-8.06,5.26-11.05,9.24c-2.48,3.31-5.19,6.52-9.5,7.62c-0.83,0.21-1.68,0.48-2.52,0.53
		c-15.16,0.82-25.51,9.01-32.93,21.57c-2.7,4.57-4.93,9.42-7.63,14c-0.7,1.18-2.33,1.82-3.49,2.67c2.65-5.01,5-9.82,7.68-14.44
		c2.45-4.22,5.25-8.23,7.9-12.34c1.37-1.23,2.73-2.46,4.1-3.68c0.19-0.12,0.38-0.24,0.11-0.07c0.09-0.36,0.03-0.12-0.03,0.13
		c-1.67,0.83-3.34,1.67-5.02,2.5c-7.52,4.41-12.84,11-17.79,17.96c-0.57,0.8-1.1,1.63-1.71,2.39c-0.18,0.22-0.57,0.27-1.86,0.84
		c0.39-2.86,0.49-5.23,1.07-7.47c2.1-8.17,7.15-14.57,12.77-20.58c9.16-9.8,11.37-21.45,8.91-34.21c-0.46-2.37-1.95-4.58-3.18-6.73
		c-1.17-2.05-2.63-3.94-3.98-5.93c-5.27,3.25-10.77,6.29-15.83,9.94c-1.58,1.14-2.34,3.86-2.82,6.01c-1.14,5.02-1.89,5.79-6.88,5.88
		c-9.97,0.18-19.15,2.55-26.56,9.74c-0.25,0.25-0.64,0.36-1.11,0.3c3.06-5.47,8.29-8.07,13.89-9.55c5.62-1.49,11.49-2.01,17.7-3.03
		c0.25-0.99,0.6-2.2,0.84-3.44c0.81-4.13,2.53-7.38,6.57-9.51c4.21-2.21,8.1-5.07,11.98-7.86c1.14-0.82,1.76-2.36,2.61-3.56
		c-0.27-0.21-0.53-0.42-0.8-0.62c-4.32-0.71-7.88,1.1-11.12,3.57c-6.12,4.67-12.01,9.65-18.23,14.17c-2.73,1.99-5.81,3.94-9.59,3.2
		c-0.69-0.14-1.35-0.44-2.12-0.97c7.89-1.08,11.94-6.28,14.97-12.86c1.86-4.04,4.99-7.05,9.08-8.96c2.07-0.33,4.14-0.66,6.22-0.98
		c-0.81,1.04-1.73,1.67-2.73,1.88c-4.7,1-7.94,3.88-10.32,7.85c-1.4,2.32-2.63,4.74-3.94,7.12c-0.12,0.22-0.24,0.44-0.36,0.66
		c0.08,0.06,0.16,0.11,0.23,0.17c0.15-0.16,0.29-0.32,0.44-0.49c1-0.62,2.09-1.12,2.98-1.87c4.01-3.34,7.9-6.82,11.95-10.1
		c3.83-3.1,8.23-4.75,13.25-4.41l-0.09-0.05c0.87,0.74,1.74,1.49,2.67,2.28c-0.45,1.14-0.88,2.23-1.47,3.73
		c2.95,6.04,8.2,11.3,8.5,18.81c0.28,7.13-0.21,14.09-3.12,20.81c6.92-4.49,13.48-9.12,20.08-13.69c5.25-3.63,9.21-8.19,11.35-14.32
		c1.95-5.56,4.18-11.03,6.88-18.11c-1.49-5.28-6.37-11.84-3.61-19.71c-2.36-4.21-6.2-6.22-10.25-7.89
		c-5.09-2.1-9.06-5.38-12.02-10.1c-3.57-5.7-5.62-11.84-6.17-18.06c-3.18-0.17-6.11-0.61-8.99-0.4c-2.48,0.18-5.43,0.44-7.24,1.86
		c-3.04,2.38-5.33,5.71-8.29,9.04c-1.28-5.9,2.3-9.94,4.54-13.43c-4.73-3.2-9.38-6.28-13.95-9.48c-2.94-2.06-5.69-2.5-9.07-0.7
		c-4.93,2.62-10.14,4.5-15.96,2.79c-1.19-0.35-2.58-0.05-3.86-0.05c-0.63,1.04-1.2,1.96-1.75,2.89
		c-5.83,9.82-13.64,17.68-23.39,23.62c-3.43,2.09-6.99,3.98-8.62,8.08c-0.29,0.73-1.65,1.04-2.47,1.51
		c-0.99-0.92-1.67-1.56-2.39-2.23c-1.29,0.37-2.45,0.71-3.16,0.91c2.21,3.63,4.34,7.12,6.47,10.61c-0.19,0.13-0.37,0.27-0.56,0.4
		c-2.99-3.78-5.99-7.56-9.17-11.57c1.41-1.21,2.95-2.54,4.05-3.49c-2.65-2.33-5.26-4.62-8.07-7.09c-0.86,0.68-1.78,1.13-2.3,1.87
		c-3.34,4.79-7.94,7.18-13.68,7.86c-5.36,0.64-9.03,3.71-11.76,8.35c-1.31,2.22-3.55,3.9-5.3,5.75c-0.35,3.35-0.49,7.14-1.19,10.81
		c-1,5.25-1.88,10.26,2.21,14.79c0.88,0.98,0.7,2.92,1.1,4.92c-2.42,0.27-4.19,0.46-6.97,0.77c2.42,5.25,4.08,10.66,7.14,15.1
		c7.49,10.89,18.55,17.56,30.19,23.23c6.24,3.04,12.68,5.66,18.97,8.58c2.93,1.36,5.74,3.01,8.6,4.53l-0.07-0.05
		c0.47,0.23,0.95,0.45,1.42,0.68l-0.08-0.07c-0.02,0.17-0.04,0.34-0.07,0.57c0.27,0.06,0.54,0.12,0.81,0.17l-0.08-0.08
		c0.24,0.25,0.49,0.49,0.73,0.74l-0.08-0.08c0.08,0.15,0.16,0.3,0.24,0.45c0.16-0.14,0.32-0.29,0.48-0.43l-0.09,0.05
		c1.31,1.44,2.6,2.9,3.94,4.31c1.39,1.46,2.83,2.87,4.25,4.3c1.31,1.47,2.63,2.95,3.94,4.42c0.23-0.15,0.46-0.3,0.69-0.44
		c-0.7-1.72-1.41-3.45-2.11-5.17c-2.25-7.8-3.26-15.7-0.82-23.61c0.9-2.9,1.67-6.24,5.42-7.13L164.43,123.7z M48.91,183.11
		c0.25,0,0.5,0,0.74,0c0.01-0.1,0.02-0.2,0.03-0.3c-0.26-0.06-0.51-0.11-0.77-0.17c-0.17,0.05-0.34,0.11-0.53,0.17
		C48.57,182.92,48.74,183.01,48.91,183.11z M106.55,230.33c-0.14,0.55-0.28,1.1-0.43,1.63c-0.18-0.09-0.36-0.18-0.1-0.05
		c-0.31-0.02-0.11-0.01,0.09,0.01c0.33-0.34,0.65-0.69,0.98-1.03c0.07-0.17,0.13-0.35,0.2-0.52
		C107.05,230.35,106.8,230.34,106.55,230.33z M265.2,100.11c-0.2-0.17-0.41-0.34-0.61-0.51c1.92-4.31,3.84-8.62,6.09-13.68
		c1.78,0,4.48,0,6.91,0c0.17-1.09,0.07-2.63,0.5-2.79c2.03-0.78,4.2-1.18,6.46-1.75c0.3-4.77-1.43-10.29,4.01-13.96
		c-9.7,0.41-16.63,6.82-24.7,9.71c0.32,2.67,0.59,4.92,0.86,7.17c-0.31-0.09-0.63-0.17-0.94-0.26c-1.85,4.82-3.79,9.61-5.52,14.48
		c-1.77,5-3.89,9.8-8.21,13.09c-5.19,3.96-10.54,7.72-15.89,11.46c-10.55,7.38-19.97,15.88-26.47,27.15
		c-1.58,2.75-2.48,5.89-3.69,8.85c6.13-8,12.84-15.04,21.66-19.85c7.28-3.97,14.73-8.18,23.1-8.33c7.05-0.12,11.41-3.27,15.08-8.52
		c2.67-3.81,5.77-7.05,10.46-8.4c2.42-0.7,3.68-2.46,3.83-5.08c0.3-5.2,0.74-10.39,1.2-16.66c2.14,0.56,3.95,0.54,4.99,1.42
		c1.24,1.06,1.83,2.9,2.74,4.47c0-1.96,0-3.77,0-6.23c-5.38-0.78-10.63-1.54-16-2.32C270.24,93.26,269.02,97.4,265.2,100.11z
		 M161.77,160.83c0.07,0,0.15,0,0.22,0c0-0.22,0-0.44,0-0.65c-0.07,0-0.15,0-0.22,0C161.77,160.39,161.77,160.61,161.77,160.83z
		 M210.88,26.59c0.07,0,0.15,0,0.22,0c0-0.22,0-0.44,0-0.65c-0.07,0-0.15,0-0.22,0C210.88,26.15,210.88,26.37,210.88,26.59z"/>
	<path class="st0" d="M36.99,355.69c11.39-9.5,24.08-16.51,38.11-20.9c7.53-2.35,15.51-3.21,23.19-5.13
		c4.64-1.16,9.43-1.66,13.61-4.9c2.07-1.6,5.95-1.19,8.99-1.12c2.44,0.05,4.71,0.38,6.75-1.76c-0.8-1.01-1.5-1.9-2.2-2.8
		c0.05-0.34,0.09-0.68,0.14-1.02c1.73,0.2,4-0.24,5.08,0.7c5.56,4.83,11.39,2.84,17.29,1.28c1.39-0.37,2.81-0.64,4.21-0.95
		c0.16,0.28,0.32,0.56,0.49,0.84c-0.72,0.81-1.28,1.98-2.18,2.36c-5.16,2.2-10.28,4.68-15.65,6.18c-6.08,1.7-11.85,3.83-16.46,8.13
		c-2.07,1.93-3.3,4.76-4.92,7.18c0.23,0.26,0.47,0.52,0.7,0.78c-1.34,0.19-2.69,0.38-4.43,0.62c1.34,3.43,1.06,6.36-2.66,8.08
		c-28.59-4.21-54.08,2.97-76.47,22.11c7.92-13.4,45.08-30.86,76.74-23.57c0.36-0.37,0.95-0.97,1.13-1.15c0-3.06,0-5.34,0-7.75
		c1.53,0,2.61,0,3.83,0c1.47-7.35,7.33-10.55,13.27-13.23c4.41-1.99,9.27-2.98,13.93-4.44c0.61-0.19,1.18-0.51,1.77-0.77
		c1.57-0.6,3.14-1.2,4.7-1.81c0.19-0.15,0.39-0.3,0.13-0.11c0.05-0.27,0.01-0.05-0.03,0.17c-1.6,0.24-3.2,0.47-4.8,0.71
		c-4.34,0.88-8.13-0.4-11.7-3.47c-0.01,3.94-1.89,5.35-5.18,5.22c-1.52-0.06-3.04-0.04-4.56-0.06c-3.16-0.05-5.85,0.54-8.82,2.32
		c-3.78,2.26-8.5,3.33-12.96,4.02c-24.87,3.84-46.95,13.42-65.28,30.95c-7.96,7.61-14.33,16.39-18.47,26.67
		c-0.1,0.26-0.2,0.53-0.46,1.19c0.66-0.32,0.98-0.48,1.3-0.63c4.6-1,8.44-2.95,11.34-7.01c1.15-1.61,3.96-2.02,6.15-2.72
		c3.97-3.73,7.54-8.19,13.71-8.26c0.31,0.28,0.62,0.56,0.93,0.84c-0.86,1.24-1.71,2.48-2.75,3.97c0.28,0.83,0.67,1.98,1.16,3.43
		c1.94-1.64,3.53-3.01,5.15-4.35c6.93-5.7,15.07-8.74,23.82-9.56c9.49-0.89,19.08-0.72,28.6-1.42c9.01-0.66,17.67-2.81,24.23-9.61
		c2.65-2.74,2.41-6.32,0.59-10.59c1.96-0.85,3.82-1.66,5.68-2.47c0.08,0.19,0.17,0.38,0.25,0.57c0.17-0.13,0.44-0.22,0.51-0.39
		c3.72-9.93,12.01-14.13,21.33-17.01c4.08-1.26,6.59,1.01,8.4,3.91c2.69-1.18,5.12-2.25,7.75-3.42c1.46,1.3,2.73,2.44,4,3.58
		c0.28,0.46,0.57,0.91,0.85,1.37c0.14-0.07,0.28-0.14,0.42-0.2c-0.16-0.41-0.32-0.81-0.49-1.22c-0.98-4.94-1.26-10.19-5.17-13.99
		c-4.95-4.83-13.07-5.04-18.43-0.72c-0.49,0.4-1.31,0.39-1.97,0.56c0.35-0.1,0.86-0.07,1.03-0.3c2.26-3.01,5.21-4.85,9.01-4.7
		c2.64,0.11,5.25,0.75,7.88,1.15c0.31,0.15,0.62,0.3,1.27,0.62c-0.28-0.69-0.39-0.96-0.49-1.22c-3.86-4.99-7.42-10.25-11.66-14.9
		c-7.79-8.53-17.47-13.89-29-15.72c-9-1.43-18.07-2.57-26.97-4.48c-6.77-1.45-13.32-3.92-19.96-5.94c-0.01-0.19-0.12-0.27-0.3-0.24
		c-0.3-0.14-0.6-0.27-1.4-0.63c0.46,0.75,0.61,0.99,0.75,1.23c-0.01,0.22,0.09,0.35,0.3,0.39c-0.22,1.41-0.44,2.81-0.65,4.22
		c-0.37,0.05-0.74,0.11-1.1,0.16c0.61,1.1,1.08,2.32,1.86,3.28c2.73,3.37,6.05,6.08,10.25,7.26c4.9,1.37,9.88,2.61,14.9,3.42
		c5.18,0.83,10.01,2.1,13.78,6c0.2,0.21,0.24,0.58,0.39,0.97c-0.48,0.63-0.96,1.25-1.87,2.44c1.67,0.1,2.78,0.3,3.86,0.2
		c4.02-0.37,8.06-1.39,12.02-1.1c2.91,0.21,6.75,1.29,8.32,3.38c3.21,4.26,5.16,9.47,7.63,14.29c-1.53-1.79-3.23-3.47-4.55-5.41
		c-1.33-1.96-2.26-4.2-3.42-6.29c-1.65-2.98-4.36-4.22-7.6-4.1c-4.12,0.16-8.24,0.55-12.35,0.91c-3.01,0.27-5.26-0.89-7.06-3.47
		c0.26-0.7,0.54-1.46,1.11-2.97c-3.29-0.93-6.43-1.93-9.63-2.7c-4.43-1.05-8.99-1.65-13.35-2.93c-9.6-2.82-13.14-6.48-16.22-15.98
		c0.42-0.56,0.86-1.14,1.36-1.8c-4.1-4.14-8.13-8.2-12.16-12.27c0.22-0.22,0.44-0.45,0.67-0.67c9.63,8.98,21.3,13.82,34,16.27
		c9.48,1.83,19.08,3.06,28.61,4.69c11.35,1.94,21.01,7.29,28.74,15.67c5.14,5.57,9.55,11.82,14.15,17.61
		c3.86-7.67-1.86-26.26-11.56-36.37c-2.51,2.5-3.33,2.49-5.37-0.5c-1.52-2.23-3.18-3-5.8-1.84c-2.63,1.16-5.12,0.46-7.3-1.35
		c-2.39-1.98-4.74-2.27-7.34-0.18c-2.75,2.2-4.81,0.29-6.62-1.6c-1.6,1.32-3.08,2.55-4.63,3.84c-6.69-3.39-11.94-9.3-19.64-9.64
		c-7.21-0.32-14.44-0.07-21.62-0.68c14.81-3.46,28.89-2.8,41.48,9.24c1.24-2.2,2.2-3.92,3.31-5.91c2.06,1.73,3.25,2.73,4.88,4.1
		c4.53-3.82,9.25-3.66,13.49,0.94c2.03-0.38,3.82-0.72,6.17-1.17c0.66,0.17,1.9,0.5,3.25,0.85c0.82,1.02,1.68,2.1,2.73,3.4
		c0.12-1.23,0.2-2.13,0.4-4.16c2.11,1.95,3.75,3.21,5.08,4.73c9.84,11.31,13.34,24.38,10.66,39.12c-0.09,0.52-0.17,1.11-0.02,1.6
		c1.24,4.26,2.52,8.51,3.8,12.77c0.19,2.21,0.38,4.43,0.58,6.64l-0.09-0.09c0,2.03,0,4.05,0,6.82c-2.19-5.01-4.11-9.38-6.38-14.57
		c-3.22,1.67-5.52,2.86-8.44,4.37c-0.6-0.6-1.85-1.48-2.6-2.67c-1.32-2.08-3.01-2.68-5.29-2.08c-8.59,2.25-16.28,5.7-19.76,14.79
		c-0.34,0.89-0.89,1.71-1.4,2.66c-1.49,0-2.86,0-4.07,0c-0.16,3.15-0.25,6.11-0.48,9.05c-0.07,0.83-0.31,1.89-0.88,2.4
		c-5.74,5.13-11.89,9.6-19.96,10.05c-9.85,0.54-19.73,0.6-29.55,1.42c-10.26,0.86-20.23,3.17-28.5,9.87
		c-1.91,1.55-3.29,3.74-4.61,5.28c-3.23-0.38-5.91,0.4-7.55-2.71c1.15-0.49,2.11-0.9,3.06-1.31c-0.15-1.14-0.3-2.27-0.54-4.07
		c-2.25,1.9-4.63,3.34-6.21,5.39c-1.85,2.41-3.84,3.41-6.89,2.55c-0.78,0.98-1.53,1.88-2.23,2.83c-2.15,2.91-4.85,4.81-8.46,5.71
		c-2.18,0.54-4.16,1.93-6.65,3.14c-1.64-1.18-0.52-3.27,0.14-4.85 M45.64,379.98c0-0.07,0-0.15,0-0.22c-0.22,0-0.44,0-0.65,0
		c0,0.07,0,0.15,0,0.22C45.2,379.98,45.42,379.98,45.64,379.98z"/>
	<path class="st0" d="M109.83,93.34c3.3,6.09,7.08,11.98,9.81,18.32c4.65,10.82,11.35,19.74,21.16,26.32
		c1.98,1.33,3.96,2.77,5.59,4.49c1.19,1.26,1.8,3.06,2.66,4.63c0,0,0.09-0.05,0.09-0.05c-0.24,0-0.48-0.01-0.72-0.01
		c0,0,0.08,0.08,0.08,0.08c-0.24-0.25-0.49-0.49-0.73-0.74l0.08,0.08c-0.24-0.25-0.49-0.5-0.73-0.74c0,0,0.08,0.07,0.08,0.07
		c-0.47-0.23-0.95-0.45-1.42-0.68c0,0,0.07,0.05,0.07,0.05c-2.01-1.85-3.84-3.98-6.08-5.51c-8.64-5.93-15.42-13.41-19.94-22.89
		c-2.53-5.3-4.9-10.68-7.51-15.93c-1.01-2.04-2.5-3.84-3.97-6.06c1.64,6.37,3.47,12.15,4.55,18.06c1.25,6.89,3.72,12.91,9.16,17.51
		c0.18,0.15,0.2,0.49,0.36,0.94c-0.51-0.13-0.82-0.16-1.08-0.29c-0.48-0.26-0.94-0.56-1.37-0.89c-5.58-4.27-7.61-10.45-8.84-16.95
		c-1.63-8.61-3.54-17.04-10.25-23.41c-0.25-0.24-0.22-0.78-0.43-1.65c5.25,1.47,9.65-0.43,13.87-2.58
		c5.54-2.83,11.09-5.43,17.49-5.07c0-2.93-0.27-5.56,0.08-8.12c0.32-2.34,0.94-4.79,2.05-6.85c2.21-4.07,4.85-7.91,7.32-11.84
		c2.43-3.86,4.43-8.09,7.39-11.5c6.16-7.11,16.68-11.66,26.96-5.56c5.54,3.29,11.71,3.83,17.98,2.24c1.83-0.46,3.62-1.08,5.91-1.77
		c-0.47,1.77-0.82,3.08-1.31,4.93c0.96,1.05,1.97,2.44,3.26,3.52c5.07,4.26,8.52,9.03,6.1,16.12c-0.41,1.21-0.57,2.55-0.63,3.84
		c-0.19,4.07-1.42,8.25,1.09,12.07c3.4,0.58,6.78,1.17,10.48,1.8c-1.02-5.51-0.04-10.48,3.49-14.97c-1.08-0.73-2.01-1.36-2.75-1.86
		c-1.43,2.6-2.69,4.9-3.94,7.2c-0.24-0.15-0.48-0.29-0.73-0.44c1.94-6.54,4.18-12.86,11.17-14.98c-0.97-3.82-1.8-7.13-2.67-10.56
		c-5.76-0.11-10.39,2.47-14.37,6.76c0.18-0.9,0.35-1.8,0.48-2.47c-1.47-0.56-2.89-1.09-4.31-1.62c7.33,0.63,13.11-6.48,20.11-4.22
		c1.04,4.65,1.97,8.8,2.85,12.75c-2.73,1.87-5.15,3.53-7.91,5.42c1.88,1.44,3.15,2.4,4.73,3.61c-4.3,5.09-5.94,10.82-4.12,17.65
		c-1.07,0-1.9,0-2.72,0c0,0,0.09,0.05,0.09,0.05c-5.81-2.53-11.8-2.11-17.83-1.13c-6.54,1.79-13.14,3.37-19.6,5.43
		c-5.53,1.77-10.89,4.08-16.33,6.16l-0.14-0.21c0,0-0.25,0.03-0.25,0.03c1.64-0.87,3.23-1.85,4.93-2.6
		c8.42-3.73,16.53-8.27,25.78-9.83c3.62-0.61,7.24-1.18,11.16-1.81c-3.15-3.73-5.43-7.59-4.92-12.53c0.18-1.73-0.01-3.49,0.06-5.23
		c0.15-3.42-1.38-5.51-4.65-6.57c-2.38-0.78-4.66-1.88-6.75-2.74c-1.53,1.2-3.14,2.46-5.02,3.93c1.55,1.25,3.11,2.52,5.01,4.06
		c-3.29,1-4.14,5.81-8.71,4.67c-0.06-0.99-0.12-1.82-0.17-2.65c0.19-0.07,0.38-0.15,0.11-0.04c0.13-0.29,0.04-0.09-0.05,0.12
		c-0.79,0.21-1.58,0.41-2.64,0.69c0.13-1.28,0.23-2.29,0.36-3.54c-2.09,0.58-4.02,1.11-5.96,1.65c1.96,5.09,5.1,6.7,10.06,5.14
		c2.27-0.72,4.43-1.78,6.68-2.56c1.38-0.48,2.83-0.72,3.52-0.89c2.05,3.62,3.78,6.67,5.71,10.08c-3.98-1.65-5.54-4.71-6.53-8.35
		c-6.13,2.2-11.87,6.24-17.88,2.38c-1.08,3.66-1.69,7.34-3.25,10.57c-2.07,4.28-4.93,8.18-7.37,12.28
		c-0.78,1.31-2.19,2.81,0.23,4.01c0.2,0.3,0.39,0.6,0.59,0.9c1.56,2.62,3.89,5.05,2.21,8.81c-1,0.07-2.04,0.15-2.99,0.22
		c-3.53-2.78-3.7-6.56-3.65-10.29c-2.54-1.69-4.96-3.3-7.39-4.91c-0.64-0.3-1.28-0.59-1.92-0.89c-4.93-1.09-9.85-2.28-14.8-3.25
		c-5.14-1-10.13-0.35-14.91,1.89c-3.83,1.79-7.7,3.49-11.55,5.23c-0.78,0.19-1.56,0.39-2.82,0.7
		C107.68,91.65,108.75,92.5,109.83,93.34z M182.4,58.56c-0.11,0.15-0.23,0.3-0.07,0.09c0,0.24,0,0.03,0.01-0.16
		c0.17,0.01,0.34,0.02,0.16,0.01C182.7,58.38,182.55,58.47,182.4,58.56z M149.48,84.77c0.29,0.11,0.58,0.22,1.8,0.69
		c-0.88-0.98-1.1-1.22-1.31-1.46c-0.87-2.12-1.74-4.23-2.61-6.35c0.41,0.06,0.82,0.13,1.22,0.19c2.06-2.28,4.25-4.46,6.14-6.87
		c2.36-3.02,4.51-6.21,8.43-7.39c2.05-0.62,4.14-1.13,6.19,1.3c-5.77-0.99-9.22,1.65-12.09,5.75c-2.13,3.03-4.63,5.8-7.33,9.13
		c1.81,4.35,5.31,7.87,10.71,9.74c2.96-5.08,5.91-10.02,8.73-15.03c2.99-5.29,1.67-11.12,1.25-17.45c4.06,1.55,7.21-2.32,11.38-0.07
		c0.13-0.04,0.91-0.29,1.27-0.4c-0.3-1.92-0.58-3.68-0.95-6.02c1.53,0.77,2.25,1.13,3.05,1.53c1.45-1.59,2.77-3.05,3.62-3.99
		c2.68,1.28,4.69,2.53,6.87,3.23c4.54,1.46,5.98,2.93,6.49,7.77c0.2,1.94-0.02,3.92,0.18,5.86c0.26,2.46,0.77,4.9,1.17,7.35
		c1.23-3.88,1.4-7.69,2.36-11.29c1.61-6.01-0.97-10.11-5.36-13.54c-2.41-1.88-4.45-3.87-4.1-7.35c-1.17,0.14-2.14,0.2-3.09,0.39
		c-6.91,1.39-13.58,1.17-19.86-2.52c-5.95-3.49-11.85-2.86-17.62,0.54c-6.62,3.9-10.05,10.32-13.47,16.83
		c-1.9,3.62-4.15,7.11-6.64,10.36c-1.61,2.11-2.69,4.06-2.49,6.79c0.2,2.66,0.04,5.35,0.04,8.54c4.03-0.26,7.73-0.5,11.57-0.75
		c-0.54,0.61-1.07,1.2-1.71,1.91C145.51,83.1,147.49,83.94,149.48,84.77z M163.5,100.63c0.5-0.13,1-0.27,1.51-0.4
		c0.63-2.83-1.4-4.54-3.09-6.39c-0.28,0.11-0.56,0.22-0.84,0.32C161.89,96.32,162.7,98.47,163.5,100.63z M182.09,61.51
		c0.15,0.17,0.3,0.35,0.46,0.52c0.62-0.52,1.25-1.04,1.87-1.56c-0.18-0.2-0.36-0.4-0.53-0.6C183.28,60.42,182.69,60.97,182.09,61.51
		z"/>
	<path class="st0" d="M215.37,174.94c5.74-0.37,11.48-1.11,17.2-1.03c8.35,0.12,13.63,5.4,18.07,12.34c1.23-0.7,2.68-1.12,3.54-2.07
		c5.88-6.56,13.52-8.71,22.04-9.05c1.18-6.12,9.69-8.3,8.31-16.05c-2.36-3.77-6.26-2.79-9.86-2.57c-3.03,0.19-6.04,0.84-9.07,1.03
		c-7.44,0.48-8.74-0.51-10.67-8.05c-1.5,1.33-2.91,2.45-4.16,3.72c-4.21,4.28-8.37,8.53-14.65,9.82c-1.36,0.28-2.98,1.32-3.67,2.5
		c-3.64,6.16-9.57,7.36-15.91,7.84c-0.43,0.03-0.87,0.07-1.3,0.11c-1.12-0.29-2.24-0.57-3.23-0.83c2.9-3.03,5.61-5.58,7.98-8.42
		c3.42-4.09,7.77-6.5,12.77-8.02c1.86-0.56,3.76-1.15,5.44-2.09c3.39-1.9,6.2-4.15,6.03-8.8c-0.09-2.51,1.1-5.05,1.59-7.59
		c0.64-3.32,2.92-4.22,6.06-4.24c-5.63,3.54-5.02,9.39-5.95,14.73c-0.29,1.67-1.22,3.69-2.52,4.63c-2.77,1.99-5.81,4-9.04,4.89
		c-7.63,2.11-12.84,6.99-17.15,13.21c-0.3,0.22-0.6,0.45-0.9,0.67c0.06,0.1,0.11,0.2,0.17,0.3c0.25-0.18,0.5-0.35,0.74-0.53
		c5.52-0.32,10.36-1.74,13.58-6.89c0.93-1.49,2.96-2.72,4.73-3.19c5.45-1.43,9.28-5.02,13.07-8.81c2.3-2.3,4.72-4.5,7.13-6.69
		c0.42-0.38,1.11-0.48,1.99-0.84c0,3.23,0,6.19,0,8.9c3.86,2.52,7.59,1.63,11.24,1.35c3.36-0.26,6.71-0.97,10.05-0.89
		c7.4,0.16,10.22,5.63,6.11,11.84c-1.9,2.87-4.36,5.38-6.54,8.02c0.11,1.05,0.21,1.98,0.31,2.95c-3.12,0.26-6.12,0.35-9.07,0.81
		c-5.07,0.78-9.49,2.92-13.15,6.65c-2.8,2.86-3.97,3.2-7.49,3.02c-3.51-5.03-6.29-5.95-10.29-3.12c-1.05,0.74-1.83,2.08-2.34,3.31
		c-1.58,3.8-2.95,4.69-6.95,4.01c-7.44-1.27-14.71-1.42-21.57,3.53c-1.4-4.17-2.65-7.88-3.9-11.58c0.73,0.47,1.79,0.77,2.11,1.44
		c1.11,2.29,1.95,4.7,2.97,7.25c7.39-4.78,15.55-3.22,24.02-2.1c1.56-5.19,3.93-9.45,10.86-9.43c-5.85-4.75-11.79-6.71-17.99-5.19
		c-10.71,2.63-20.35-0.79-30.5-3.99c0.84-0.3,1.4-0.5,1.97-0.71c3.75,0.94,7.48,1.93,11.24,2.79
		C210.97,174.32,213.18,174.58,215.37,174.94z"/>
	<path class="st0" d="M179.72,327.83c0.17-11.36,0.32-22.73,0.52-34.09c0.05-2.6,0.2-5.21,0.5-7.79c0.31-2.58,0.1-4.92-0.54-7.55
		c-0.79-3.21,0.2-6.85,0.44-10.49c-4.16-3.97,0.27-7.46,1.03-11.93c-1.46-1.29-3.17-2.81-5.7-5.06c0.32-1.5,0.57-3.94,1.39-6.17
		c1.67-4.57,3.65-9.04,5.5-13.55c0.09-0.32,0.19-0.65,0.35-1.2c-0.54,0.2-0.79,0.29-1.04,0.39c-1.12,0.36-2.25,0.72-3.36,1.07
		c-1.31-2.77,1.92-9.15,5.65-10.96c-0.74,1.38-1.4,2.66-2.1,3.9c-0.72,1.27-1.5,2.52-2.62,4.4c1.94-0.28,3.14-0.45,5.43-0.78
		c-0.55,2.32-0.8,4.23-1.46,5.98c-2.01,5.36-4.19,10.67-6.11,15.53c2.32,2.21,4.18,3.98,6.29,5.98c-1.13,3.16-2.17,6.09-3.26,9.15
		c3.14,2.83,1.37,6.46,1.54,9.82c0.09,1.68,0.39,3.34,0.59,5.01c0.13,1.08,0.38,2.16,0.36,3.23c-0.13,6.92-0.27,13.85-0.51,20.77
		c-0.31,9.11-0.73,18.22-1.03,27.34c-0.05,1.36,0.33,2.73,0.41,4.09c0.27,4.2,0.69,8.39,0.71,12.59c0.03,6.08-0.17,12.15-0.39,18.23
		c-0.13,3.67-0.47,7.33-0.75,11.42c0.34,0.51,0.94,1.4,1.45,2.16c0.04,0.4,0.15,0.67,0.06,0.83c-3.99,7.61-0.67,14.93,0.63,22.41
		c0.67,3.88,0.44,8,0.08,11.96c-1.26,13.63-2.77,27.23-4.15,40.85c-0.28,2.77-0.45,5.56-1.22,8.32c0.42-10.13,0.69-20.27,1.33-30.39
		c0.52-8.13,1.88-16.21,2.12-24.34c0.15-4.97-0.54-10.13-1.87-14.92c-1.34-4.83-1.36-9.16,1.23-13.74
		c-2.51-2.18-1.99-4.84-1.31-7.71c0.52-2.18,0.34-4.53,0.42-6.81c0.28-8.03,0.7-16.06,0.71-24.1c0-2.23-1.21-4.46-1.86-6.69
		c0,0,0.09,0.09,0.09,0.09C179.41,332.67,179.57,330.25,179.72,327.83z"/>
	<path class="st1" d="M200.09,80.48c6.03-0.97,12.02-1.4,17.83,1.13c-5.02-0.34-9.42,1.31-13.25,4.41
		c-4.05,3.28-7.94,6.77-11.95,10.1c-0.89,0.74-1.98,1.25-2.98,1.87c-0.1-0.11-0.21-0.23-0.31-0.34c1.31-2.38,2.55-4.8,3.94-7.12
		c2.38-3.97,5.63-6.85,10.32-7.85c1.01-0.21,1.93-0.84,2.73-1.88c-2.07,0.33-4.14,0.66-6.22,0.98
		C200.17,81.35,200.13,80.92,200.09,80.48z"/>
	<path class="st0" d="M202.25,202.78c-0.36-3.09-0.73-6.18-1.13-9.54c2.43,1.27,3.65,3.9,3.52,6.33c-0.22,4.28,0.09,8.99-4.25,12.29
		c-0.11-2.15-0.22-4.3-0.39-7.64c-4.57,4-8.43,7.36-11.97,10.45c0.14-2.56,5.06-7.63,11.3-11.07c-2.23-4.51-2.96-4.81-7.02-2.87
		c-0.66-0.79-1.33-1.58-2.15-2.56c0.85-0.67,1.91-1.52,3.35-2.66c0.27,1.09,0.43,1.7,0.63,2.51c3.66-0.72,5.38,1.92,6.99,4.72
		c0.24,0.78,0.49,1.55,0.83,2.64C202.08,204.27,202.17,203.53,202.25,202.78z"/>
	<path class="st1" d="M281.37,98.61c0.16-1.36,0.31-2.72,0.58-5.07c1.27,2.04,2.2,3.54,3.54,5.71c-1.75-0.35-2.47-0.5-3.19-0.64
		C282,98.61,281.68,98.61,281.37,98.61z"/>
	<path class="st1" d="M159.76,154.52c0.7,1.72,1.41,3.45,2.11,5.17c-0.23,0.15-0.46,0.3-0.69,0.44c-1.31-1.47-2.63-2.95-3.94-4.42
		C158.08,155.32,158.92,154.92,159.76,154.52z"/>
	<path class="st1" d="M179.72,327.83c-0.15,2.42-0.31,4.84-0.46,7.26c-0.19-2.21-0.38-4.43-0.58-6.64
		C179.03,328.25,179.37,328.04,179.72,327.83z"/>
	<path class="st1" d="M279.42,88.77c-1.94-0.12-3.89-0.23-5.83-0.35c0.02-0.29,0.05-0.58,0.07-0.87c1.92,0.18,3.84,0.36,5.76,0.54
		C279.42,88.31,279.42,88.54,279.42,88.77z"/>
	<path class="st1" d="M109.83,93.34c-1.07-0.85-2.15-1.69-3.58-2.82c1.26-0.31,2.04-0.51,2.82-0.7
		C109.32,91,109.57,92.17,109.83,93.34z"/>
	<path class="st1" d="M145.95,322.68c-1.57,0.6-3.14,1.2-4.71,1.8c0-0.35,0-0.69,0-1.04c1.6-0.24,3.2-0.47,4.8-0.71L145.95,322.68z"
		/>
	<path class="st1" d="M67.18,257.69c-0.97-0.71-1.94-1.43-2.91-2.14c0.55-0.54,1.09-1.08,1.64-1.62c0.65,1.03,1.29,2.06,1.94,3.09
		C67.62,257.24,67.4,257.47,67.18,257.69z"/>
	<path class="st1" d="M203.56,178.21c1.06,0.55,2.11,1.1,3.17,1.65c-0.07,0.17-0.14,0.34-0.21,0.51c-1.02,0-2.05,0-3.07,0
		C203.49,179.65,203.53,178.93,203.56,178.21z"/>
	<path class="st1" d="M78.61,94.87c0.45-0.15,0.89-0.3,1.63-0.55c0,0.5,0,1.09,0,1.68c-0.5,0.09-1,0.19-1.76,0.33
		C78.53,95.78,78.57,95.33,78.61,94.87z"/>
	<path class="st1" d="M202.25,202.78c-0.08,0.75-0.17,1.49-0.29,2.6c-0.34-1.09-0.59-1.87-0.83-2.64
		C201.5,202.75,201.88,202.76,202.25,202.78z"/>
	<path class="st1" d="M150.33,85.95c0.64,0.3,1.28,0.59,1.92,0.89C151.61,86.54,150.97,86.24,150.33,85.95z"/>
	<path class="st1" d="M176.78,329.07c0.16,0.41,0.32,0.81,0.49,1.22c-0.14,0.07-0.28,0.14-0.42,0.2c-0.28-0.46-0.57-0.91-0.85-1.37
		C176.26,329.11,176.52,329.09,176.78,329.07z"/>
	<path class="st1" d="M122.82,193.16c-0.48-0.34-0.95-0.68-1.76-1.26c0.9-0.16,1.38-0.24,1.85-0.32
		C122.88,192.11,122.85,192.64,122.82,193.16z"/>
	<path class="st1" d="M217.24,171.39c-0.25,0.18-0.5,0.35-0.74,0.53c-0.06-0.1-0.11-0.2-0.17-0.3c0.3-0.22,0.6-0.45,0.9-0.67
		C217.23,171.09,217.24,171.24,217.24,171.39z"/>
	<path class="st1" d="M217.22,83.64c0.27,0.21,0.53,0.42,0.8,0.62C217.75,84.06,217.48,83.85,217.22,83.64z"/>
	<path class="st1" d="M200.76,183.95c-0.22-0.15-0.43-0.3-0.75-0.52c0.35-0.11,0.59-0.19,0.83-0.26
		C200.81,183.42,200.79,183.69,200.76,183.95z"/>
	<path class="st0" d="M164.36,123.78l-0.06-0.15c0,0,0.12,0.07,0.12,0.07C164.43,123.7,164.36,123.78,164.36,123.78z"/>
	<path class="st1" d="M164.07,93c-0.2-0.3-0.39-0.6-0.59-0.9c0.1-0.08,0.2-0.15,0.31-0.21l0.25-0.03l0.14,0.21
		C164.13,92.38,164.1,92.69,164.07,93z"/>
	<path class="st1" d="M228.33,140.52c-1.37,1.23-2.73,2.46-4.1,3.68c-0.28-0.38-0.56-0.75-0.84-1.13c1.67-0.83,3.34-1.67,5.02-2.5
		L228.33,140.52z"/>
	<path class="st1" d="M150.97,173.73c0.04-0.42,0.07-0.84,0.11-1.26c0.78,0.34,1.56,0.69,2.34,1.03c-0.16,0.17-0.31,0.35-0.47,0.52
		C152.29,173.92,151.63,173.83,150.97,173.73z"/>
	<path class="st1" d="M106.13,231.98c0.14-0.55,0.28-1.1,0.42-1.65c0.18,0.19,0.36,0.37,0.54,0.56c-0.33,0.34-0.65,0.69-0.98,1.03
		C106.12,231.92,106.13,231.98,106.13,231.98z"/>
	<path class="st1" d="M153.43,173.5c0.56,0.28,1.12,0.55,1.69,0.83c-0.08,0.19-0.15,0.38-0.23,0.58c-0.64-0.29-1.28-0.59-1.93-0.88
		C153.11,173.85,153.27,173.67,153.43,173.5z"/>
	<path class="st1" d="M145.78,145.1c0.47,0.23,0.95,0.45,1.42,0.68C146.72,145.55,146.25,145.33,145.78,145.1z"/>
	<path class="st1" d="M161.77,160.83c0-0.22,0-0.44,0-0.65c0.07,0,0.15,0,0.22,0c0,0.22,0,0.44,0,0.65
		C161.91,160.83,161.84,160.83,161.77,160.83z"/>
	<path class="st1" d="M147.76,146.37c0.24,0.25,0.49,0.49,0.73,0.74C148.25,146.87,148.01,146.62,147.76,146.37z"/>
	<path class="st1" d="M48.91,183.11c-0.17-0.1-0.34-0.19-0.53-0.3c0.19-0.06,0.36-0.11,0.53-0.17
		C48.92,182.8,48.92,182.95,48.91,183.11z"/>
	<path class="st2" d="M48.91,183.11c0.01-0.15,0.01-0.31,0-0.46c0.26,0.06,0.51,0.11,0.77,0.17c-0.01,0.1-0.02,0.2-0.03,0.3
		C49.41,183.11,49.16,183.11,48.91,183.11z"/>
	<path class="st1" d="M147.12,145.71c0.24,0.25,0.49,0.5,0.73,0.74c-0.27-0.06-0.54-0.11-0.81-0.17
		C147.07,146.05,147.09,145.88,147.12,145.71z"/>
	<path class="st1" d="M148.41,147.04c0.24,0,0.48,0.01,0.72,0.01c-0.16,0.14-0.32,0.29-0.48,0.43
		C148.57,147.33,148.49,147.18,148.41,147.04z"/>
	<path class="st1" d="M228.4,140.57c0.06-0.24,0.12-0.49,0.03-0.13c0.27-0.17,0.08-0.05-0.11,0.07
		C228.33,140.52,228.4,140.57,228.4,140.57z"/>
	<path class="st1" d="M127.77,204.36c-0.24,0.08-0.48,0.17-0.83,0.29c0-0.37,0-0.62,0-0.87
		C127.22,203.97,127.5,204.16,127.77,204.36z"/>
	<path class="st2" d="M110.81,206.16c0.31-0.14,0.62-0.27,1.77-0.77c-0.74,1.02-0.94,1.3-1.14,1.58
		C111.23,206.69,111.02,206.43,110.81,206.16z"/>
	<path class="st2" d="M107.1,230.88c-0.18-0.19-0.36-0.37-0.54-0.56c0.25,0.01,0.49,0.03,0.74,0.04
		C107.23,230.54,107.16,230.71,107.1,230.88z"/>
	<path class="st1" d="M106.12,231.92c-0.2-0.02-0.4-0.03-0.09-0.01c-0.26-0.13-0.08-0.04,0.1,0.06
		C106.13,231.98,106.12,231.92,106.12,231.92z"/>
	<path class="st1" d="M189.73,97.99c-0.15,0.16-0.29,0.32-0.44,0.49c-0.08-0.06-0.15-0.11-0.23-0.17c0.12-0.22,0.24-0.44,0.36-0.66
		C189.53,97.77,189.63,97.88,189.73,97.99z"/>
	<path class="st2" d="M105.44,148.18c0.15,0.22,0.29,0.43,0.58,0.86c-0.55-0.07-0.82-0.11-1.1-0.15
		C105.1,148.65,105.27,148.41,105.44,148.18z"/>
	<ellipse class="st2" cx="210.99" cy="26.26" rx="0.15" ry="0.46"/>
	<path class="st2" d="M151.05,314.7c-2.47-4.82-4.43-10.02-7.63-14.29c-1.57-2.09-5.41-3.17-8.32-3.38c-3.96-0.29-8,0.73-12.02,1.1
		c-1.08,0.1-2.19-0.1-3.86-0.2c0.91-1.18,1.38-1.8,1.87-2.44c-0.15-0.38-0.18-0.76-0.39-0.97c-3.76-3.9-8.6-5.17-13.78-6
		c-5.02-0.81-10-2.05-14.9-3.42c-4.2-1.18-7.53-3.89-10.25-7.26c-0.78-0.96-1.25-2.18-1.86-3.28c0.37-0.05,0.74-0.11,1.1-0.16
		c0.22-1.41,0.44-2.81,0.65-4.22c0.22-0.25,0.43-0.5,0.65-0.75c6.65,2.02,13.2,4.48,19.96,5.94c8.9,1.91,17.97,3.05,26.97,4.48
		c11.52,1.82,21.21,7.19,29,15.72c4.24,4.64,7.79,9.91,11.66,14.9c-0.26,0.2-0.52,0.4-0.77,0.61c-2.63-0.4-5.24-1.04-7.88-1.15
		c-3.79-0.15-6.74,1.69-9.01,4.7c-0.17,0.23-0.68,0.21-1.03,0.3C151.22,314.93,151.05,314.7,151.05,314.7z"/>
	<path class="st1" d="M146.05,322.74c0.04-0.22,0.09-0.44,0.03-0.17c0.26-0.19,0.06-0.04-0.13,0.11
		C145.95,322.68,146.05,322.74,146.05,322.74z"/>
	<path class="st1" d="M81.37,269.8c-0.15-0.24-0.29-0.47-0.75-1.23c0.8,0.36,1.1,0.49,1.4,0.63C81.8,269.4,81.58,269.6,81.37,269.8z
		"/>
	<path class="st1" d="M82.32,269.44c-0.22,0.25-0.43,0.5-0.65,0.75c-0.21-0.04-0.31-0.17-0.3-0.39c0.22-0.2,0.43-0.4,0.65-0.6
		C82.2,269.17,82.3,269.25,82.32,269.44z"/>
	<path class="st2" d="M169.91,310.47c0.11,0.27,0.22,0.54,0.49,1.22c-0.65-0.32-0.96-0.47-1.27-0.62
		C169.39,310.87,169.65,310.67,169.91,310.47z"/>
	<ellipse class="st2" cx="45.31" cy="379.88" rx="0.46" ry="0.15"/>
	<path class="st2" d="M15.13,389.65c-0.32,0.16-0.65,0.31-1.3,0.63c0.26-0.66,0.36-0.93,0.46-1.19
		C14.57,389.27,14.85,389.46,15.13,389.65z"/>
	<path class="st1" d="M163.5,100.63c-0.81-2.16-1.61-4.31-2.42-6.47c0.28-0.11,0.56-0.22,0.84-0.32c1.69,1.85,3.72,3.56,3.09,6.39
		C164.51,100.36,164,100.5,163.5,100.63z"/>
	<path class="st1" d="M182.09,61.51c0.6-0.55,1.2-1.09,1.8-1.64c0.18,0.2,0.36,0.4,0.53,0.6c-0.62,0.52-1.25,1.04-1.87,1.56
		C182.39,61.86,182.24,61.69,182.09,61.51z"/>
	<path class="st1" d="M180.56,60.66c0.09-0.2,0.18-0.41,0.05-0.12c0.27-0.11,0.08-0.03-0.11,0.04
		C180.5,60.59,180.56,60.66,180.56,60.66z"/>
	<path class="st1" d="M182.33,58.48c0,0.21,0,0.42,0,0.17c-0.16,0.21-0.05,0.06,0.07-0.09L182.33,58.48z"/>
	<path class="st1" d="M182.4,58.56c0.15-0.09,0.3-0.18,0.11-0.06c0.17,0.01,0,0-0.17-0.02C182.33,58.48,182.4,58.56,182.4,58.56z"/>
	<path class="st1" d="M149.97,84.01c0.22,0.24,0.43,0.48,1.31,1.46c-1.23-0.47-1.52-0.58-1.8-0.69
		C149.64,84.52,149.8,84.26,149.97,84.01z"/>
	<path class="st2" d="M182.17,230.4c0.25-0.09,0.5-0.18,1.04-0.39c-0.16,0.56-0.26,0.88-0.35,1.2
		C182.63,230.94,182.4,230.67,182.17,230.4z"/>
	<path class="st0" d="M132.55,60.32c0.05,0.28,0.1,0.56,0.23,1.34c-0.48-0.56-0.63-0.75-0.79-0.94
		C132.18,60.59,132.37,60.46,132.55,60.32z"/>
	<path class="st0" d="M265.2,100.11c-0.18,0.19-0.36,0.37-0.91,0.95c0.17-0.81,0.23-1.14,0.3-1.46
		C264.79,99.77,264.99,99.94,265.2,100.11z"/>
</g>
</svg>
