<?xml version="1.0" encoding="utf-8"?>
<!-- Generator: Adobe Illustrator 23.0.6, SVG Export Plug-In . SVG Version: 6.00 Build 0)  -->
<svg version="1.1" id="Capa_1" xmlns="http://www.w3.org/2000/svg" xmlns:xlink="http://www.w3.org/1999/xlink" x="0px" y="0px"
	 viewBox="0 0 284.41 257.1" style="enable-background:new 0 0 284.41 257.1;" xml:space="preserve">
<style type="text/css">
	.st0{fill:none;}
	.st1{fill:#181819;}
	.st2{fill:#FFFFFF;}
	.st3{fill:#FBFBFB;}
	.st4{fill:#FEFEFE;}
</style>
<g>
	<path class="st0" d="M116.56,150.27c0.14-0.12,0.27-0.24,0.41-0.36l0,0C116.84,150.02,116.7,150.15,116.56,150.27z"/>
	<path class="st1" d="M116.97,149.9c0.03-0.02,0.05-0.05,0.08-0.07l0,0C117.02,149.86,117,149.88,116.97,149.9L116.97,149.9z"/>
	<path class="st1" d="M113.69,147.89c0.01,0,0.02,0.01,0.03,0.01l0,0C113.71,147.9,113.7,147.89,113.69,147.89z"/>
	<path class="st1" d="M196.24,143.3c-0.08,0.07-0.16,0.14-0.24,0.21c0.1-0.05,0.21-0.1,0.31-0.16
		C196.32,143.36,196.24,143.3,196.24,143.3z"/>
	<path class="st2" d="M41.24,158.18c0.31-0.17,0.62-0.34,0.94-0.51c1.87-0.98,4.3-1.73,5.77-3.22
		C45.61,155.5,43.37,156.74,41.24,158.18z"/>
	<path class="st1" d="M113.74,147.92l-0.05-0.04C113.69,147.89,113.72,147.91,113.74,147.92z"/>
	<path class="st1" d="M116.33,149.82"/>
	<path class="st1" d="M113.74,147.92c0.01,0.01,0.03,0.02,0.03,0.02c-0.01-0.01-0.03-0.03-0.04-0.04c-0.01,0-0.02-0.01-0.03-0.01
		L113.74,147.92z"/>
	<g>
		<polygon class="st0" points="148.65,17.83 148.66,17.82 148.65,17.83 		"/>
		<polygon class="st0" points="69.96,216.28 69.96,216.28 69.96,216.28 		"/>
		<path class="st0" d="M210.45,52.57l0.04,0.01c-0.02-0.02-0.04-0.03-0.06-0.05L210.45,52.57z"/>
	</g>
	<g>
		<path class="st0" d="M210.45,52.57l0.04,0.01c-0.02-0.02-0.04-0.03-0.06-0.05L210.45,52.57z"/>
		<polygon class="st0" points="148.65,17.83 148.66,17.82 148.65,17.83 		"/>
		<polygon class="st0" points="69.96,216.28 69.96,216.28 69.96,216.28 		"/>
		<g>
			<polygon class="st0" points="69.96,216.28 69.96,216.28 69.96,216.28 			"/>
			<polygon class="st0" points="148.65,17.83 148.66,17.82 148.65,17.83 			"/>
			<path class="st0" d="M210.45,52.57l0.04,0.01c-0.02-0.02-0.04-0.03-0.06-0.05L210.45,52.57z"/>
			<g>
				<polygon class="st0" points="69.96,216.28 69.96,216.28 69.96,216.28 				"/>
				<path class="st1" d="M121.34,176.28c-0.78-0.34-1.56-0.69-2.34-1.03c-1.18-0.77-2.31-1.63-3.55-2.28
					c-4.24-2.21-8.87-3.79-13.5-2.49c-3.3,0.92-5.27-0.05-7.68-1.8c-1.65-1.2-3.8-2.29-5.77-2.37c-5.63-0.22-9.58-2.44-11.62-7.8
					c-0.31-0.8-0.64-1.6-1.02-2.46c-0.59-1.36-1.4-2.63-2.44-3.69c-0.26-0.27-0.48-0.52-0.58-0.68c-2.24-0.38-4.48-1.11-6.71-1.09
					c-17.09,0.18-29.64,8.6-39.32,22.06c-1.52,2.12-2.84,4.39-4.34,6.53c-2.07,2.95-4.59,5.14-9.28,4.03
					c1.13,1.64,1.92,2.65,2.56,3.73c1.88,3.16,4.43,6.15,5.37,9.58c1.62,5.91,5.13,9.86,9.97,13.15c4.43,3.02,7.6,6.95,8.74,12.46
					c1.57,7.63,6.4,9.94,13.67,7.15c4.11-1.58,8.28-3.49,12.68-1.29c3.42-2.94,5.7-6.24,4.89-11.17c1.19-2.09,2.28-5.16,3.95-6.91
					c3.66-3.84,8.15-6.57,13.99-7.46c-3.36,3.58-6.51,6.65-9.32,10c-3.22,3.84-3.24,6.38-0.83,10.72c0.64,1.14,1.2,2.33,1.76,3.46
					c0.28,0.56,0.59,1.1,0.92,1.64c1.36,2.24-1.14,0.21-2.77-1.13c-2.47,1.93-4.57,3.57-6.51,5.08c-0.62-1.86-1.25-3.71-1.87-5.57
					c-0.67,3.99-0.92,7.74-0.55,11.42c0.15,1.46,1.66,2.8,2.59,4.15c0.05,0.07,0.54-0.18,0.87-0.29c-0.34-0.97-0.66-1.85-1.27-3.56
					c1.77-1.08,3.53-2.9,5.41-3.04c1.31-0.1,3.42,1.84,4.07,3.35c2.18,5.03,3.19,5.77,8.91,4.69c0.13-0.02,0.21-0.33,0.34-0.56
					c-0.72-0.56-1.46-1.13-2.82-2.18c1.38-2.66,2.22-5.27,3.87-7.19c1.88-2.19,4.4-3.88,6.77-5.6c3.61-2.62,7.5-4.89,10.97-7.69
					c2.53-2.04,4.95-4.51,3.54-8.32c-6.54-2.86-12.9-5.05-19.99-1.29c-0.85-6.56-0.96-13-8.35-16.41c0.98-0.53,1.33-0.84,1.72-0.92
					c5.31-1.06,9.29-4.17,13.27-7.71c5.38-4.79,10.86-10.01,19.11-8.96c0.66,0.1,1.32,0.19,1.98,0.29c0.64,0.29,1.28,0.59,1.93,0.88
					c0.08-0.19,0.15-0.38,0.23-0.58C122.46,176.84,121.9,176.56,121.34,176.28z M69.96,216.28L69.96,216.28L69.96,216.28
					C69.96,216.28,69.96,216.28,69.96,216.28z"/>
			</g>
			<rect x="129.68" y="162.96" class="st1" width="0.22" height="0.65"/>
			<path class="st1" d="M129.9,163.62h-0.22v-0.65h0.22V163.62z"/>
		</g>
		<path class="st1" d="M212.52,154.15c-2.77,1.99-7,5.48-10.23,6.37c-7.63,2.11-12.84,6.99-17.15,13.21
			c-0.3,0.22-0.23,0.62,0.02,0.44c5.52-0.32,10.36-1.74,13.58-6.89c0.93-1.49,2.96-2.72,4.73-3.19l13.07-8.81
			c0.57-0.57,2.15-2.26,3.88-4.1l-6.01,0.45C213.54,152.94,212.83,153.92,212.52,154.15z"/>
	</g>
	<path class="st1" d="M123.02,177.11c-0.56-0.28-1.12-0.55-1.69-0.83c-0.16,0.17-0.31,0.35-0.47,0.52c0.64,0.29,1.28,0.59,1.93,0.88
		C122.87,177.5,122.95,177.3,123.02,177.11z"/>
	<path class="st1" d="M129.9,162.96c-0.07,0-0.15,0-0.22,0c0,0.22,0,0.44,0,0.65c0.07,0,0.15,0,0.22,0
		C129.9,163.4,129.9,163.18,129.9,162.96z"/>
	<path class="st3" d="M115.68,149.16c0.01,0.01,0.03,0.03,0.04,0.04c0,0,0,0,0,0C115.71,149.19,115.69,149.17,115.68,149.16z"/>
	<path class="st3" d="M115.76,149.24c-0.01-0.01-0.03-0.03-0.04-0.04c-0.01-0.01-0.03-0.03-0.04-0.04L115.76,149.24z"/>
	<polygon class="st3" points="117.05,149.84 117.05,149.84 117.04,149.84 	"/>
	<path class="st3" d="M116.96,149.89C116.96,149.89,116.96,149.89,116.96,149.89L116.96,149.89c0,0.01,0.01,0.01,0.01,0.02
		c0.03-0.02,0.05-0.05,0.08-0.07l-0.01,0.01C117.02,149.85,116.96,149.89,116.96,149.89z"/>
	<path class="st3" d="M116.41,149.9c-0.03-0.03-0.05-0.05-0.08-0.08h0C116.36,149.85,116.38,149.87,116.41,149.9L116.41,149.9z"/>
	<path class="st3" d="M117.04,149.84C117.04,149.84,117.05,149.84,117.04,149.84c-0.03-0.01-0.07-0.01-0.11-0.01
		c0.01,0.02,0.02,0.04,0.03,0.05L117.04,149.84z"/>
	<polygon class="st3" points="116.41,149.9 116.32,149.82 116.41,149.9 	"/>
	<path class="st3" d="M116.33,149.82C116.33,149.82,116.33,149.82,116.33,149.82l0.07,0.08
		C116.38,149.87,116.36,149.85,116.33,149.82z"/>
	<path class="st1" d="M117.04,149.84l-0.08,0.05c0,0,0,0,0,0C116.96,149.89,117.02,149.85,117.04,149.84z"/>
	<path class="st4" d="M79.61,209.39c0.05-0.07,0.11-0.15,0.17-0.24L79.61,209.39z"/>
	<path class="st4" d="M79.35,209.75l0.26-0.36C79.5,209.53,79.43,209.64,79.35,209.75z"/>
	<g>
		<polygon class="st0" points="148.66,17.82 148.65,17.83 148.65,17.83 		"/>
		<path class="st0" d="M210.49,52.59c-0.02-0.02-0.04-0.03-0.06-0.05l0.02,0.03L210.49,52.59z"/>
		<path class="st2" d="M115.72,149.2c0.02,0.02,0.03,0.03,0.05,0.05C115.75,149.24,115.74,149.22,115.72,149.2L115.72,149.2z"/>
		<path class="st1" d="M45.59,102.09c1.33,3.59,2.47,7.27,4.04,10.75c1.53,3.39,1.72,6.54,0.37,10.05
			c-2.12,5.53-1.27,8.25,3.58,11.81c2.79,2.05,5.92,3.62,8.81,5.55c4.17,2.79,8.78,5.16,10.77,10.21c1.01,0.66,2.5,1.46,3.18,1.47
			c0.25,0.51,0.49,1.03,0.74,1.54c0.84,1.76,1.05,4,2.28,5.35c1.88,2.06,4.37,4.93,6.65,4.99c4.98,0.12,8.82,1.77,12.26,5.34
			c9.24-3.31,16.82,1,24.3,5.32c4.34,2.51,8.28,3.2,12.2-1.12c-4.92-7.5-10.87-14.38-17.87-20.33c-7.39-6.28-16.22-9.93-25.06-13.61
			c-14.29-5.96-27.72-13.42-37.03-26.26c-3.04-4.19-4.12-8.68-6.29-13.5C48.22,100.81,45.82,102,45.59,102.09z"/>
		<path class="st1" d="M196.35,143.23C196.35,143.23,196.35,143.23,196.35,143.23C196.48,143.15,196.56,143.1,196.35,143.23z"/>
		<path class="st1" d="M150,64.3c0.15,0.17,0.3,0.35,0.46,0.52c0.62-0.52,1.25-1.04,1.87-1.56c-0.18-0.2-0.36-0.4-0.53-0.6
			C151.2,63.21,150.6,63.75,150,64.3z"/>
		<path class="st1" d="M116.97,149.9c1.31,1.43,2.59,2.89,3.93,4.29c1.39,1.46,2.83,2.87,4.25,4.3c1.31,1.47,2.62,2.94,3.94,4.41
			c0.4-0.25,0.3-0.19,0.7-0.44c-0.7-1.72-1.41-3.45-2.11-5.17c-2.25-7.8-3.26-15.7-0.82-23.61c0.9-2.9,1.67-6.24,5.42-7.13
			l-0.06-0.15c0,0,0.12,0.07,0.12,0.07l0,0c0,0,0,0,0,0.01c0,0,0,0,0,0c-7.35,11.54-5.88,23.28-0.86,35.13
			c1.84,4.34,3.49,8.76,5.14,12.93c-3.97,3.39-7.47,5.63-12.12,3.8c-1.08,0.1-2.23,0.51-3.22,0.26c-5.62-1.4-10.36-0.01-14.79,3.7
			c-5.05,4.22-10.43,8.06-15.67,12.06c-0.48,0.08-0.96,0.17-1.85,0.32l0.06,0.04c1.8,3.49,4.03,7.8,5.83,11.29c0,0.51,0,0.78,0,1.4
			c0.35-0.12,0.59-0.2,0.83-0.29c7.82-1.85,14.93,0.52,22.12,3.3c4.38,1.69,9.07,2.89,13.72,3.39c2.24,0.24,4.8-1.48,7.06-2.62
			c3.3-1.67,6.47-3.61,10.08-4.85c3.88-8.45,9.39-15.1,20.64-15.48c-1.85-2.07-2.95-3.3-4.83-5.4c2.72-0.92,4.81-1.62,6.89-2.32
			h4.27c-1.39-0.72-2.77-1.44-4.16-2.17c-6.7-3.63-13.87-3.92-21.22-3.02c-3.05,0.37-6.04,0.61-8.61-1.8
			c-0.84-0.79-2.29-0.93-3.82-1.51c2.68-1.34,4.37,0.63,6.38,1.12c2.09,0.51,4.4,0.25,6.6,0.17c2.27-0.09,4.68,0.06,6.75-0.69
			c2.05-0.74,3.66-2.62,5.62-3.72c1.93-1.08,4.05-1.82,6.55-2.39l-4.28,3.54c-1.6,0.82-3.19,1.63-5.48,2.81
			c7.72,1.59,14.54,2.58,19.14,9.92h-6.89c-1.16,0.18-2.3,0.36-3.46,0.54l-0.83,0.26c0.32,0.22,0.53,0.37,0.75,0.52
			c0.92,1.36,1.83,2.73,3.05,4.54c-1.69,0.84-2.76,1.8-3.89,1.86c-2.27,0.11-4.08,0.6-5.59,1.37c1.47,1.49-4.16,6.46-4.16,6.46
			c0.82,0.98,1.49,1.77,2.15,2.56c4.06-1.94,4.8-1.64,7.02,2.87c-6.24,3.45-11.15,8.51-11.3,11.07c3.54-3.09,7.39-6.46,11.97-10.45
			l1.21-1.21c0.22,0.69,0.44,1.4,0.74,2.37c0.12-1.1,0.21-1.85,0.29-2.6l0.15-0.97l2.24-2.25c0.11-2.13-0.81-4.41-2.68-5.8
			c0,0,0,0,0,0c-0.45-1.58,3.22-0.9,5.35-0.39c-1.12-3.38-2.31-7-3.19-9.61c0.73,0.47,1.79,0.77,2.11,1.44
			c1.11,2.29,1.95,4.7,2.97,7.25c0,0,0,0,0,0c0.08,0.37,0.41,1.07,0.73,1.66c6.29-3.67,12.91-3.46,19.65-2.3
			c4.01,0.69,5.37-0.2,6.95-4.01c0.51-1.23,1.29-2.57,2.34-3.31c2.45-1.73,4.44-2.05,6.42-0.89l-0.64-1.42
			c-0.38-0.83-0.94-1.58-1.67-2.13c-5.5-4.13-11.08-5.75-16.89-4.33c-10.71,2.63-20.35-0.79-30.5-3.99c0.84-0.3,1.4-0.5,1.97-0.71
			c3.75,0.94,7.48,1.93,11.24,2.79c2.16,0.49,4.37,0.75,6.56,1.11c5.74-0.37,11.48-1.11,17.2-1.03c8.35,0.12,13.63,5.4,18.07,12.34
			c0.04-0.02,0.5,0.77,0.7,1.19c0.01,0.01,0.04,0.09,0.09,0.19c1.95-0.16,3.13-0.88,5.23-3.03c3.66-3.73,8.08-5.87,13.15-6.65
			c2.94-0.46,5.95-0.54,9.07-0.81c-0.1-0.97-0.2-1.9-0.31-2.95c2.18-2.64,4.64-5.15,6.54-8.02c4.11-6.21,1.3-11.67-6.11-11.84
			c-3.34-0.07-6.7,0.64-10.05,0.89c-3.64,0.28-7.37,1.17-11.24-1.35c0-2.72,0-5.67,0-8.9c-0.88,0.36-1.56,0.46-1.99,0.84
			c-0.78,0.7-1.55,1.41-2.32,2.12c-0.95,1.94-1.96,4.58-2.64,5.27c-4.21,4.28-8.37,8.53-14.65,9.82c-1.36,0.28-2.98,1.33-3.67,2.5
			c-3.64,6.16-9.57,7.36-15.91,7.84c-0.43,0.03-0.87,0.07-1.3,0.11c-1.12-0.29-2.24-0.57-3.23-0.83c2.9-3.03,5.61-5.58,7.98-8.42
			c3.42-4.09,7.77-6.5,12.77-8.02c1.86-0.56,3.76-1.15,5.44-2.09c2.23-1.25,6.53-3.08,7.57-5.21c0.06-0.24,0.12-0.47,0.16-0.69
			c0.93-5.34,0.32-11.19,5.95-14.73c-1.56,0.01-2.9,0.23-3.94,0.86l0,0l0.13-0.13c-14.84,0.97-20.99,7.69-28.32,20.11
			c-2.7,4.57-4.93,9.42-7.63,14c-0.7,1.18-2.33,1.82-3.49,2.67c2.65-5.01,5-9.82,7.68-14.44c2.45-4.22,5.25-8.23,7.9-12.34
			c1.3-1.17,2.52-2.28,3.82-3.45c0.12-0.06,0.23-0.12,0.35-0.18c0.01-0.04,0.02-0.09,0.03-0.13c-0.03,0.02-0.07,0.04-0.11,0.07
			c-0.08,0.07-0.16,0.14-0.24,0.21c-1.57,0.78-3.14,1.56-4.7,2.35c-7.52,4.41-12.84,11-17.79,17.96c-0.57,0.8-1.1,1.63-1.71,2.39
			c-0.18,0.22-0.57,0.27-1.86,0.84c0.39-2.86,0.49-5.23,1.07-7.47c2.1-8.17,7.15-14.57,12.77-20.58c9.16-9.8,11.37-21.45,8.91-34.21
			c-0.46-2.37-1.95-4.58-3.18-6.73c-1.17-2.05-2.63-3.94-3.98-5.93c-5.27,3.25-10.77,6.29-15.83,9.94
			c-1.58,1.14-2.34,3.86-2.82,6.01c-1.14,5.02-1.89,5.79-6.88,5.88c-9.97,0.18-19.15,2.55-26.56,9.74c-0.25,0.25-0.64,0.36-1.11,0.3
			c3.06-5.47,8.29-8.07,13.89-9.55c5.62-1.49,11.49-2.01,17.7-3.03c0.25-0.99,0.6-2.2,0.84-3.44c0.81-4.13,2.53-7.38,6.57-9.51
			c4.21-2.21,8.1-5.07,11.98-7.86c1.01-0.73,1.61-2.03,2.34-3.15c-0.2-0.44-0.27-0.59-0.48-1.03c-4.34-0.73-7.92,1.09-11.17,3.56
			c-6.12,4.67-12.01,9.65-18.23,14.17c-2.73,1.99-5.81,3.94-9.59,3.2c-0.69-0.14-1.35-0.44-2.12-0.97
			c7.89-1.08,11.94-6.28,14.97-12.86c2.63-5.72,7.83-9.37,14.66-10.77c0.46,0.69,0.13,0.2,0.59,0.89c-0.79,1-1.7,1.6-2.68,1.81
			c-4.7,1-7.94,3.88-10.32,7.85c-1.4,2.32-2.63,4.74-3.94,7.12c-0.12,0.22-0.24,0.44-0.36,0.66c0.08,0.06,0.16,0.11,0.23,0.17
			l0.44-0.49c1-0.62,2.09-1.12,2.98-1.87c4.01-3.34,7.9-6.82,11.95-10.1c3.82-3.09,8.21-4.74,13.22-4.41
			c-0.01-0.01-0.02-0.02-0.03-0.02c-5.79-2.5-11.76-2.08-17.77-1.11c-6.54,1.79-13.14,3.37-19.6,5.43
			c-5.53,1.77-10.89,4.08-16.33,6.16l-0.14-0.21l-0.25,0.03c0,0,0,0,0,0c0,0,0,0,0,0c-0.11,0.06-0.21,0.13-0.31,0.21
			c0.2,0.3,0.39,0.6,0.59,0.9c1.56,2.62,3.89,5.05,2.21,8.81c-1,0.07-2.04,0.15-2.99,0.22c-3.53-2.78-3.7-6.56-3.65-10.29
			c-2.54-1.69-4.96-3.3-7.39-4.91c-0.64-0.3-1.28-0.59-1.92-0.89c-4.93-1.09-9.85-2.28-14.8-3.25c-5.14-1-10.13-0.35-14.91,1.89
			c-3.83,1.79-7.7,3.49-11.55,5.23c-0.78,0.19-1.56,0.39-2.82,0.7c1.44,1.13,2.51,1.98,3.58,2.82c3.3,6.09,7.08,11.98,9.81,18.32
			c4.65,10.82,11.35,19.74,21.16,26.32c1.98,1.33,3.96,2.77,5.59,4.49c1.17,1.24,1.78,3.02,2.63,4.57"/>
		<path class="st1" d="M148.52,63.33C148.52,63.33,148.52,63.33,148.52,63.33C148.73,63.24,148.66,63.28,148.52,63.33z"/>
		<path class="st1" d="M117.62,87.65c0.26,0.1,0.65,0.25,1.57,0.6c-0.88-0.98-1.1-1.22-1.31-1.46c-0.16,0.26-0.33,0.51-0.49,0.77
			C117.46,87.59,117.53,87.62,117.62,87.65z"/>
		<path class="st1" d="M87.75,119.54c-2.53-5.3-4.9-10.68-7.51-15.93c-1.01-2.04-2.5-3.84-3.97-6.06
			c1.64,6.37,3.47,12.15,4.55,18.06c1.25,6.89,3.72,12.91,9.16,17.51c0.18,0.15,0.2,0.49,0.36,0.94c-0.51-0.13-0.83-0.16-1.08-0.29
			c-0.48-0.26-0.94-0.56-1.37-0.89c-5.58-4.27-7.61-10.45-8.84-16.95c-1.63-8.61-3.54-17.04-10.25-23.41
			c-0.25-0.24-0.22-0.78-0.43-1.65c5.25,1.47,9.65-0.43,13.87-2.58c5.54-2.83,11.09-5.43,17.49-5.07c0-2.93-0.27-5.56,0.08-8.12
			c0.32-2.34,0.94-4.79,2.05-6.85c2.21-4.07,4.85-7.91,7.32-11.84c2.43-3.86,4.43-8.09,7.39-11.5c6.16-7.11,16.68-11.66,26.96-5.56
			c5.54,3.29,11.71,3.83,17.98,2.24c1.83-0.46,3.62-1.08,5.91-1.77c-0.47,1.77-0.82,3.08-1.31,4.93c0.96,1.05,1.97,2.44,3.26,3.52
			c5.07,4.26,8.52,9.03,6.1,16.12c-0.41,1.21-0.57,2.55-0.63,3.84c-0.19,4.07-1.42,8.25,1.09,12.07c3.4,0.58,6.78,1.17,10.48,1.8
			c-1.02-5.51-0.04-10.48,3.49-14.97c-1.08-0.73-2.01-1.36-2.75-1.86c-1.43,2.6-2.69,4.9-3.94,7.2c-0.24-0.15-0.48-0.29-0.73-0.44
			c1.94-6.54,4.18-12.86,11.17-14.98c-0.97-3.82-1.8-7.13-2.67-10.56c-5.76-0.11-10.39,2.47-14.37,6.76c0.18-0.9,0.35-1.8,0.48-2.47
			c-1.47-0.56-2.89-1.09-4.31-1.62c7.33,0.63,13.11-6.48,20.11-4.22c1.04,4.65,1.97,8.8,2.85,12.75c-2.73,1.87-5.15,3.53-7.91,5.42
			c1.88,1.44,3.15,2.4,4.73,3.61c-4.3,5.09-5.94,10.82-4.12,17.65c-1.07,0-1.9,0-2.72,0l0.09,0.05c-0.01,0-0.02,0-0.03,0
			c0.85,0.73,1.7,1.46,2.6,2.23c-0.45,1.14-0.88,2.23-1.47,3.73c2.95,6.04,8.2,11.3,8.5,18.81c0.28,7.13-0.21,14.09-3.12,20.81
			c6.92-4.49,13.48-9.12,20.08-13.69c5.25-3.63,9.21-8.19,11.35-14.32c1.8-5.13,3.83-10.17,6.26-16.48c0.43-1.13,0.43-2.37,0-3.5
			c-0.3-0.78-0.63-1.58-0.98-2.41c0.22-0.25,0.43-0.54,0.61-0.87l0,0c-0.55-5.66-1.02-10.38-1.62-16.54
			c-1.15-2.19-3.37-4.06-6.11-5.65l0,0l-0.01,0c-1.47-0.85-3.08-1.63-4.76-2.33c-4.43-1.85-7.92-4.79-10.48-8.96
			c-3.71-6.05-6.13-12.42-5.77-20.29c-7.12,2.9-14.78-1.86-21.29,3.74l-0.12,0.01c-0.13-0.34-0.27-0.69-0.4-1.03
			c1.35-1.42,2.71-2.84,4.1-4.3c-0.31-0.26-0.53-0.58-0.79-0.62c-6.65-1.12-12.03-4.49-17.05-8.88c-2.99-2.61-6.72-2.78-10.38-0.74
			c-4.99,2.78-10.23,4.07-15.99,2.87c-2.66-0.56-4.47,0.51-6.21,2.92c-4.05,5.61-8.72,10.76-13.02,16.19
			c-4.45,5.63-11.93,7.64-16.57,12.61c0.45,0.32,1,0.69,1.41,0.77c-1.06,1.05-1.96,2.28-2.58,3.84c-0.29,0.73-1.65,1.04-2.47,1.51
			c-0.99-0.92-1.67-1.56-2.39-2.23c-1.29,0.37-2.45,0.71-3.16,0.91c2.21,3.63,4.34,7.12,6.47,10.61c0.05,0.28,0.1,0.56,0.23,1.34
			c-0.48-0.56-0.63-0.75-0.79-0.94c-2.99-3.78-5.99-7.56-9.17-11.57c1.41-1.21,2.95-2.54,4.05-3.49c-0.24-0.21-0.48-0.43-0.73-0.64
			c0.63-0.22,1.48-0.85,2.13-1.42c-3.65-1.19-6.11-4.65-9.25-7.22c-1.78,1.35-3.57,2.27-4.76,3.69c-2.85,3.42-6.2,5.61-10.7,6.15
			c-6.5,0.78-11.34,4-14.21,10.07c-0.7,1.48-2.07,2.64-3.11,3.92c-1.77-0.72-3.06-1.24-4.36-1.77c3.18,5.87,1.82,11.58,0.5,17.16
			c-1.13,4.79-0.54,9,2.58,12.85c0.56,0.69,0.86,1.59,1.7,3.2c-2.67-0.31-4.49-0.52-6.65-0.77c-0.43,1.21-0.93,2.6-1.42,3.99
			c-0.04,0.46-0.08,0.91-0.13,1.46c0.76-0.14,1.26-0.24,1.76-0.33c0.01,0,0.01,0,0,0c0.01,0,0.01,0,0,0
			c2.42,5.25,4.79,8.36,7.85,12.81c7.49,10.89,18.55,17.56,30.19,23.23c6.24,3.04,12.68,5.66,18.97,8.58
			c2.93,1.36,5.74,3.01,8.6,4.53l-0.03-0.02c0.01,0.01,0.03,0.02,0.03,0.02c-0.01-0.01-0.03-0.03-0.04-0.04
			c-2-1.84-3.81-3.95-6.03-5.47C99.05,136.5,92.26,129.01,87.75,119.54z M210.49,52.59l-0.04-0.01l-0.02-0.03
			C210.44,52.56,210.47,52.57,210.49,52.59z M148.66,17.82L148.66,17.82L148.66,17.82C148.66,17.83,148.66,17.82,148.66,17.82z"/>
		<path class="st1" d="M101.39,83.82c4.03-0.26,7.73-0.5,11.57-0.75c-0.54,0.61-1.07,1.2-1.71,1.91c2.17,0.91,4.15,1.75,6.14,2.59h0
			c0.16-0.26,0.33-0.51,0.49-0.77c-0.87-2.12-1.74-4.23-2.61-6.35c0.41,0.06,0.82,0.13,1.22,0.19c2.06-2.28,4.25-4.46,6.14-6.87
			c2.36-3.02,4.51-6.21,8.43-7.39c2.05-0.62,4.14-1.13,6.19,1.3c-5.77-0.99-9.22,1.65-12.09,5.75c-2.13,3.03-4.63,5.8-7.33,9.13
			c1.81,4.35,5.31,7.87,10.71,9.74c2.96-5.08,5.91-10.02,8.73-15.03c2.99-5.29,1.67-11.12,1.25-17.45
			c4.06,1.55,7.21-2.32,11.38-0.07c0.13-0.04,0.91-0.29,1.27-0.4c-0.3-1.92-0.58-3.68-0.95-6.02c1.53,0.77,2.25,1.13,3.05,1.53
			c1.45-1.59,2.77-3.05,3.62-3.99c2.68,1.28,4.69,2.53,6.87,3.23c4.54,1.46,5.98,2.93,6.49,7.77c0.2,1.94-0.02,3.92,0.18,5.86
			c0.26,2.46,0.77,4.9,1.17,7.35c1.23-3.88,1.4-7.69,2.36-11.29c1.61-6.01-0.97-10.11-5.36-13.54c-2.41-1.88-4.45-3.87-4.1-7.35
			c-1.17,0.14-2.14,0.2-3.09,0.39c-6.91,1.39-13.58,1.17-19.86-2.52c-5.95-3.49-11.85-2.86-17.62,0.54
			c-6.62,3.9-10.05,10.32-13.47,16.83c-1.9,3.62-4.15,7.11-6.64,10.36c-1.61,2.11-2.69,4.06-2.49,6.79
			C101.55,77.94,101.39,80.62,101.39,83.82z"/>
		<path class="st1" d="M129,96.95c0.81,2.16,1.61,4.31,2.42,6.47c0.5-0.13,1-0.27,1.51-0.4c0.63-2.83-1.4-4.54-3.09-6.39
			C129.55,96.73,129.28,96.84,129,96.95z"/>
		<path class="st1" d="M162.4,82.26c3.62-0.61,7.24-1.18,11.16-1.81c-3.15-3.73-5.43-7.59-4.92-12.53c0.18-1.73-0.01-3.49,0.06-5.23
			c0.15-3.41-1.38-5.51-4.65-6.57c-2.38-0.78-4.66-1.88-6.75-2.74c-1.53,1.2-3.14,2.46-5.02,3.93c1.55,1.25,3.11,2.52,5.01,4.06
			c-3.29,1-4.14,5.81-8.71,4.67c-0.06-0.96-0.11-1.76-0.17-2.56c-0.77,0.2-1.55,0.4-2.59,0.67c0.13-1.28,0.23-2.29,0.36-3.54
			c-2.09,0.58-4.02,1.11-5.96,1.65c1.96,5.09,5.1,6.7,10.06,5.14c2.27-0.72,4.43-1.78,6.68-2.56c1.38-0.48,2.83-0.72,3.52-0.89
			c2.05,3.62,3.78,6.67,5.71,10.08c-3.98-1.65-5.54-4.71-6.53-8.35c-6.13,2.2-11.87,6.24-17.88,2.38
			c-1.08,3.66-1.69,7.34-3.25,10.57c-2.07,4.28-4.93,8.18-7.37,12.28c-0.78,1.31-2.19,2.81,0.23,4.01c0.1-0.08,0.2-0.15,0.31-0.21h0
			c0,0,0,0,0,0c0,0,0,0,0,0h0c1.64-0.87,3.23-1.85,4.93-2.6C145.04,88.35,153.15,83.82,162.4,82.26z"/>
		<path class="st1" d="M185.77,84.38c0.01,0.01,0.02,0.02,0.03,0.02c0.01,0,0.02,0,0.03,0C185.81,84.39,185.79,84.39,185.77,84.38z"
			/>
		<polygon class="st1" points="132.34,126.48 132.34,126.49 132.34,126.49 		"/>
		<polygon class="st1" points="131.69,94.68 131.69,94.68 131.69,94.68 		"/>
		<path class="st1" d="M148.41,63.37c0,0.03,0,0.06,0.01,0.09c0.02,0,0.04-0.01,0.05-0.01C148.47,63.44,148.41,63.37,148.41,63.37z"
			/>
		<path class="st1" d="M132.92,103.01c-0.5,0.13-1,0.27-1.51,0.4c-0.81-2.16-1.61-4.31-2.42-6.47c0.28-0.11,0.56-0.22,0.84-0.32
			C131.52,98.47,133.55,100.18,132.92,103.01z M152.33,63.26c-0.62,0.52-1.25,1.04-1.87,1.56c-0.15-0.17-0.3-0.35-0.46-0.52
			c0.6-0.55,1.2-1.09,1.8-1.64C151.97,62.86,152.15,63.06,152.33,63.26z M150.44,61.29c0.06,0,0.07,0-0.02,0c0,0,0,0,0,0
			c-0.03,0.02-0.07,0.04-0.11,0.06c-0.02,0.03-0.04,0.06-0.06,0.08c0,0.12,0,0.18,0,0c0,0.07,0,0.13,0,0.11c0,0.02,0-0.03,0-0.11
			c-0.03,0.03-0.03,0.05-0.05,0.06c-0.02,0.02-0.02,0.03-0.02,0.03c0,0,0.01-0.01,0.02-0.03c0.01-0.02,0.02-0.03,0.05-0.06
			c0-0.05,0-0.11,0-0.17l0,0.01c0.07,0.01,0.12,0.01,0.17,0.01c0.02-0.01,0.03-0.02,0.04-0.03c0.02-0.01,0.03-0.02,0.03-0.02
			c0,0-0.01,0.01-0.03,0.02c-0.01,0.01-0.03,0.02-0.04,0.03C150.49,61.29,150.51,61.29,150.44,61.29z M103.84,68.49
			c2.48-3.25,4.74-6.74,6.64-10.36c3.42-6.51,6.84-12.93,13.47-16.83c5.77-3.4,11.67-4.03,17.62-0.54
			c6.29,3.69,12.96,3.9,19.86,2.52c0.95-0.19,1.92-0.25,3.09-0.39c-0.35,3.48,1.69,5.46,4.1,7.35c4.4,3.43,6.97,7.52,5.36,13.54
			c-0.96,3.6-1.13,7.4-2.36,11.29c-0.4-2.45-0.91-4.88-1.17-7.35c-0.21-1.94,0.02-3.92-0.18-5.86c-0.5-4.84-1.95-6.31-6.49-7.77
			c-2.18-0.7-4.19-1.95-6.87-3.23c-0.85,0.94-2.17,2.39-3.62,3.99c-0.8-0.4-1.51-0.76-3.05-1.53c0.37,2.34,0.65,4.1,0.95,6.02
			c-0.36,0.11-1.14,0.36-1.27,0.4c-4.18-2.25-7.32,1.63-11.38,0.07c0.42,6.33,1.74,12.16-1.25,17.45
			c-2.83,5.01-5.78,9.95-8.73,15.03c-5.39-1.87-8.9-5.4-10.71-9.74c2.69-3.33,5.2-6.09,7.33-9.13c2.87-4.09,6.32-6.73,12.09-5.75
			c-2.06-2.43-4.14-1.91-6.19-1.3c-3.93,1.18-6.07,4.37-8.43,7.39c-1.89,2.41-4.08,4.59-6.14,6.87c-0.41-0.06-0.82-0.13-1.22-0.19
			c0.87,2.12,1.74,4.23,2.61,6.35c0.22,0.24,0.43,0.48,1.31,1.46c-0.92-0.35-1.31-0.5-1.57-0.6c-0.09-0.03-0.16-0.06-0.23-0.09l0,0
			h0c-1.99-0.84-3.97-1.67-6.14-2.59c0.64-0.71,1.17-1.3,1.71-1.91c-3.84,0.25-7.53,0.49-11.57,0.75c0-3.19,0.16-5.88-0.04-8.54
			C101.15,72.55,102.23,70.6,103.84,68.49z"/>
		<path class="st1" d="M150.25,61.28c0.01,0.01,0.06,0.07,0.06,0.07L150.25,61.28C150.25,61.28,150.25,61.28,150.25,61.28z"/>
		<path class="st1" d="M150.25,61.43C150.25,61.44,150.25,61.44,150.25,61.43C150.25,61.61,150.25,61.55,150.25,61.43z"/>
		<path class="st1" d="M150.44,61.29c-0.01,0-0.01,0-0.02,0C150.52,61.29,150.5,61.29,150.44,61.29z"/>
		<path class="st1" d="M185.74,84.35c0.01,0.01,0.02,0.02,0.03,0.03c0.02,0.01,0.04,0.02,0.06,0.02L185.74,84.35z"/>
		<path class="st1" d="M132.22,126.42l0.06,0.15l0.07-0.08C132.33,126.49,132.22,126.42,132.22,126.42z"/>
		<path class="st1" d="M132.34,126.49l-0.07,0.08C132.27,126.57,132.34,126.48,132.34,126.49
			C132.34,126.49,132.34,126.49,132.34,126.49C132.34,126.49,132.34,126.49,132.34,126.49z"/>
		<polygon class="st3" points="131.69,94.68 131.69,94.68 131.69,94.68 		"/>
		<path class="st3" d="M148.52,63.33C148.52,63.33,148.52,63.33,148.52,63.33c-0.03,0.01-0.07,0.03-0.11,0.04
			c0,0,0.06,0.07,0.06,0.07C148.49,63.4,148.51,63.37,148.52,63.33z"/>
		<path class="st3" d="M148.52,63.33C148.59,63.18,148.63,63.09,148.52,63.33L148.52,63.33z"/>
		<path class="st3" d="M150.25,61.28c0,0.06,0,0.11-0.01,0.16c0.02-0.03,0.04-0.05,0.06-0.08
			C150.31,61.35,150.26,61.28,150.25,61.28C150.25,61.28,150.25,61.28,150.25,61.28z"/>
		<path class="st3" d="M150.25,61.28C150.25,61.28,150.25,61.27,150.25,61.28C150.25,61.27,150.25,61.27,150.25,61.28l-0.01-0.01
			c0,0.06,0,0.12,0,0.17c0,0,0,0,0,0C150.25,61.39,150.25,61.33,150.25,61.28C150.25,61.28,150.25,61.28,150.25,61.28z"/>
		<path class="st3" d="M150.44,61.29c0.06,0,0.04,0-0.02,0c0,0,0,0,0,0C150.43,61.29,150.44,61.29,150.44,61.29z"/>
		<path class="st3" d="M150.31,61.35c0.04-0.02,0.07-0.04,0.11-0.06c-0.05,0-0.1-0.01-0.16-0.01L150.31,61.35z"/>
		<path class="st3" d="M150.26,61.28c0.06,0,0.12,0.01,0.16,0.01c0,0,0,0,0,0C150.38,61.28,150.32,61.28,150.26,61.28L150.26,61.28z
			"/>
		<path class="st3" d="M150.42,61.29c0.02,0,0.01,0,0.02,0C150.44,61.29,150.43,61.29,150.42,61.29
			C150.42,61.29,150.42,61.29,150.42,61.29z"/>
		<polygon class="st3" points="150.25,61.28 150.26,61.28 150.25,61.27 150.25,61.27 		"/>
		<path class="st1" d="M117.39,87.56c0.07,0.03,0.14,0.06,0.23,0.09C117.53,87.62,117.46,87.59,117.39,87.56L117.39,87.56z"/>
		<path class="st1" d="M101.45,46.49c-0.11,0.48-0.22,0.95-0.32,1.43c-1.81,0.58-3.62,1.17-5.68,1.83c1.79,0.6,3.26,1.09,5.13,1.72
			c0.68-1.45,1.57-2.68,2.6-3.78c-0.17-0.12-0.32-0.24-0.44-0.33c-1-2.88-4.5-1.01-5.99-1.49c-0.15,0.15-0.34,0.33-0.54,0.51
			C97.71,46.88,99.41,47,101.45,46.49z"/>
	</g>
	<g>
		<path class="st1" d="M260.79,70.79c0.66-0.21,1.23-0.68,1.85-1.04c-0.06-0.32-0.12-0.63-0.18-0.95c-1.65-0.27-3.3-0.81-4.93-0.77
			c-6.59,0.18-12.43,2.68-18.02,6.01c-2.41,1.43-4.98,2.6-8.18,4.16c0.25,0.76,0.45,1.71,0.44,1.71c0.32,2.67,0.23,7-0.08,6.91
			c-1.85,4.82-3.79,9.61-5.52,14.48c-1.77,5-3.89,9.8-8.21,13.09c-5.19,3.96-10.54,7.72-15.89,11.46
			c-10.55,7.38-19.97,15.88-26.47,27.15c-1.58,2.75-2.48,5.89-3.69,8.85c6.13-8,12.84-15.04,21.66-19.85
			c7.28-3.97,15.19-6,23.56-6.15c1.13-0.15,2.28-0.28,3.47-0.34c0.85-0.05,1.69-0.32,2.52-0.53c4.32-1.09,7.02-4.31,9.5-7.62
			c2.98-3.97,6.13-7.41,11.05-9.24c1.83-0.68,3.62-3.24,4.14-5.27c0.64-2.5,0-5.35-0.23-8.04c-0.13-1.57-0.62-3.14,1.69-3.44
			c0.31,0,0.63,0,0.94,0c0.45,2.48,2.04,3.7,4.3,4.34c2.79-3.48,3.67-7.12,2.05-10.87c-1.47-3.41-5.01-2.79-7.96-3.11
			c-0.34-0.04-0.69-0.1-1.03-0.16c-0.09,0.14-0.15,0.26-0.16,0.29c-0.02,0.03-0.05,0.06-0.06,0.07c-0.22,0.23-0.45,0.45-0.68,0.67
			c-0.07,0.07-0.11,0.11-0.12,0.14c-0.05,0.03-0.09,0.05-0.15,0.09c-0.18,0.11-0.37,0.21-0.55,0.32c-0.05,0.01-0.18,0.07-0.35,0.14
			c-0.01,0-0.01,0-0.01,0.01c-2.17-0.31-4.34-0.63-6.53-0.95c-0.76,3.45-1.89,7.31-5.19,10.02c-0.18,0.19-1.02,0.88-1.57,1.46
			l0.3-1.46c0,0,0,0,0,0l5.54-12.43c0.47,0.33,1.02,0.57,1.66,0.71c0.53,0.26,1.13,0.42,1.82,0.47c0,0.02,0,0.04-0.01,0.06
			c1.94,0.12,4.15,0.67,5.83-0.33c0.3-1.3,0.61-2.59,0.97-4.14c1.62,0,3.3,0,5.7,0c0.14-2.25,0.45-4.55,0.41-6.84
			C254.3,74.42,255.62,72.45,260.79,70.79z"/>
		<polygon class="st1" points="232.5,102.39 232.5,102.39 232.5,102.39 		"/>
	</g>
</g>
</svg>
